<svg xmlns="http://www.w3.org/2000/svg" xmlns:xlink="http://www.w3.org/1999/xlink" width="500" zoomAndPan="magnify" viewBox="0 0 375 167.249994" height="223" preserveAspectRatio="xMidYMid meet" version="1.0"><defs><g/><clipPath id="a2018c3ec0"><path d="M 0.835938 35.148438 L 374.160156 35.148438 L 374.160156 149.4375 L 0.835938 149.4375 Z M 0.835938 35.148438 " clip-rule="nonzero"/></clipPath><clipPath id="b8566d5d65"><path d="M 20.039062 35.148438 L 374.164062 35.148438 L 354.960938 149.4375 L 0.835938 149.4375 Z M 20.039062 35.148438 " clip-rule="nonzero"/></clipPath><clipPath id="5337b8260f"><path d="M 0.835938 0.148438 L 374.160156 0.148438 L 374.160156 114.4375 L 0.835938 114.4375 Z M 0.835938 0.148438 " clip-rule="nonzero"/></clipPath><clipPath id="cfab8e6b3a"><path d="M 20.039062 0.148438 L 374.164062 0.148438 L 354.960938 114.4375 L 0.835938 114.4375 Z M 20.039062 0.148438 " clip-rule="nonzero"/></clipPath><clipPath id="2b64d26e25"><rect x="0" width="375" y="0" height="115"/></clipPath><clipPath id="6d06e04130"><rect x="0" width="314" y="0" height="102"/></clipPath><clipPath id="128f70f72c"><rect x="0" width="94" y="0" height="38"/></clipPath></defs><g clip-path="url(#a2018c3ec0)"><g clip-path="url(#b8566d5d65)"><g transform="matrix(1, 0, 0, 1, -0.000000000000000111, 35)"><g clip-path="url(#2b64d26e25)"><g clip-path="url(#5337b8260f)"><g clip-path="url(#cfab8e6b3a)"><path fill="#000000" d="M 0.835938 0.148438 L 374.070312 0.148438 L 374.070312 114.4375 L 0.835938 114.4375 Z M 0.835938 0.148438 " fill-opacity="1" fill-rule="nonzero"/></g></g></g></g></g></g><g transform="matrix(1, 0, 0, 1, 30, 42)"><g clip-path="url(#6d06e04130)"><g fill="#ffffff" fill-opacity="1"><g transform="translate(4.892101, 79.948022)"><g><path d="M 6.03125 -35.703125 C 6.363281 -37.710938 6.628906 -39.367188 6.828125 -40.671875 C 7.035156 -41.984375 7.171875 -42.972656 7.234375 -43.640625 C 7.773438 -45.785156 8.484375 -47.257812 9.359375 -48.0625 C 10.160156 -48.875 11.429688 -49.378906 13.171875 -49.578125 C 14.378906 -49.773438 16.390625 -49.875 19.203125 -49.875 C 19.535156 -49.875 19.96875 -49.875 20.5 -49.875 C 21.039062 -49.875 21.648438 -49.84375 22.328125 -49.78125 L 44.453125 -49.78125 C 45.191406 -49.84375 45.8125 -49.875 46.3125 -49.875 C 46.8125 -49.875 47.195312 -49.875 47.46875 -49.875 C 50.28125 -49.875 52.289062 -49.773438 53.5 -49.578125 C 54.90625 -49.378906 55.941406 -48.910156 56.609375 -48.171875 C 57.285156 -47.429688 57.625 -46.125 57.625 -44.25 C 57.625 -42.976562 57.320312 -40.128906 56.71875 -35.703125 L 56.21875 -31.984375 L 54.203125 -17.796875 L 53.703125 -14.171875 C 53.234375 -10.484375 52.832031 -7.972656 52.5 -6.640625 C 52.09375 -4.628906 51.519531 -3.1875 50.78125 -2.3125 C 49.976562 -1.4375 48.738281 -0.800781 47.0625 -0.40625 C 46.394531 -0.332031 45.253906 -0.242188 43.640625 -0.140625 C 42.035156 -0.046875 39.957031 0 37.40625 0 L 39.421875 -14.171875 L 39.921875 -17.796875 L 41.9375 -31.984375 L 42.4375 -35.703125 C 41.769531 -35.703125 41.203125 -35.703125 40.734375 -35.703125 C 40.265625 -35.703125 39.925781 -35.664062 39.71875 -35.59375 C 39.320312 -35.59375 38.953125 -35.425781 38.609375 -35.09375 C 38.484375 -34.957031 38.316406 -34.519531 38.109375 -33.78125 C 38.109375 -33.519531 38.007812 -32.921875 37.8125 -31.984375 L 35.796875 -17.796875 L 35.296875 -14.171875 C 35.023438 -12.097656 34.769531 -10.375 34.53125 -9 C 34.300781 -7.625 34.085938 -6.566406 33.890625 -5.828125 C 33.484375 -4.148438 32.847656 -2.878906 31.984375 -2.015625 C 31.378906 -1.410156 30.375 -0.90625 28.96875 -0.5 C 28.289062 -0.363281 27.113281 -0.242188 25.4375 -0.140625 C 23.757812 -0.046875 21.613281 0 19 0 L 21.015625 -14.171875 L 21.515625 -17.796875 L 23.53125 -31.984375 L 24.03125 -35.703125 C 22.820312 -35.703125 22.085938 -35.664062 21.828125 -35.59375 C 21.285156 -35.59375 20.878906 -35.460938 20.609375 -35.203125 C 20.546875 -35.128906 20.476562 -34.972656 20.40625 -34.734375 C 20.34375 -34.503906 20.242188 -34.222656 20.109375 -33.890625 C 20.109375 -33.617188 20.007812 -32.984375 19.8125 -31.984375 L 17.796875 -17.796875 L 17.296875 -14.171875 C 17.023438 -11.898438 16.738281 -10.039062 16.4375 -8.59375 C 16.132812 -7.15625 15.882812 -6.066406 15.6875 -5.328125 C 15.28125 -3.585938 14.539062 -2.347656 13.46875 -1.609375 C 12.53125 -0.867188 11.125 -0.398438 9.25 -0.203125 C 8.582031 -0.128906 7.628906 -0.078125 6.390625 -0.046875 C 5.148438 -0.015625 3.554688 0 1.609375 0 L -3.015625 0 C -1.671875 -1.132812 -0.832031 -1.875 -0.5 -2.21875 C 0.238281 -2.75 0.738281 -3.285156 1 -3.828125 C 1.269531 -4.296875 1.503906 -4.765625 1.703125 -5.234375 C 1.835938 -5.628906 1.941406 -6.234375 2.015625 -7.046875 L 3.015625 -14.171875 L 3.515625 -17.796875 L 5.53125 -31.984375 Z M 6.03125 -35.703125 "/></g></g></g><g fill="#ffffff" fill-opacity="1"><g transform="translate(61.90734, 79.948022)"><g><path d="M 19.90625 -49.78125 L 57.71875 -49.78125 C 57.457031 -47.769531 57.207031 -46.09375 56.96875 -44.75 C 56.726562 -43.40625 56.507812 -42.367188 56.3125 -41.640625 C 55.914062 -39.691406 55.242188 -38.316406 54.296875 -37.515625 C 53.222656 -36.578125 51.484375 -36.003906 49.078125 -35.796875 C 48.398438 -35.796875 47.441406 -35.78125 46.203125 -35.75 C 44.960938 -35.71875 43.375 -35.664062 41.4375 -35.59375 L 23.4375 -35.59375 C 23.164062 -35.59375 22.894531 -35.609375 22.625 -35.640625 C 22.351562 -35.679688 22.117188 -35.703125 21.921875 -35.703125 C 21.316406 -35.703125 20.878906 -35.632812 20.609375 -35.5 C 20.210938 -35.5 19.910156 -35.398438 19.703125 -35.203125 C 19.503906 -34.992188 19.304688 -34.585938 19.109375 -33.984375 C 19.109375 -33.648438 19.007812 -32.984375 18.8125 -31.984375 L 16.296875 -14.078125 L 52.6875 -14.078125 C 52.425781 -12.003906 52.175781 -10.257812 51.9375 -8.84375 C 51.707031 -7.4375 51.488281 -6.363281 51.28125 -5.625 C 50.882812 -3.75 50.179688 -2.410156 49.171875 -1.609375 C 48.234375 -0.867188 46.757812 -0.398438 44.75 -0.203125 C 44.082031 -0.128906 43.078125 -0.078125 41.734375 -0.046875 C 40.390625 -0.015625 38.679688 0 36.609375 0 L 14.078125 0 C 11.660156 0 9.679688 -0.046875 8.140625 -0.140625 C 6.597656 -0.242188 5.457031 -0.332031 4.71875 -0.40625 C 3.3125 -0.664062 2.304688 -1.234375 1.703125 -2.109375 C 1.503906 -2.515625 1.335938 -3 1.203125 -3.5625 C 1.066406 -4.132812 1 -4.757812 1 -5.4375 L 1 -6.140625 C 1.070312 -6.867188 1.191406 -7.882812 1.359375 -9.1875 C 1.523438 -10.5 1.742188 -12.128906 2.015625 -14.078125 C 2.210938 -15.285156 2.445312 -16.773438 2.71875 -18.546875 C 2.988281 -20.328125 3.253906 -22.425781 3.515625 -24.84375 C 3.847656 -27.25 4.148438 -29.335938 4.421875 -31.109375 C 4.691406 -32.890625 4.894531 -34.382812 5.03125 -35.59375 C 5.363281 -37.601562 5.628906 -39.257812 5.828125 -40.5625 C 6.035156 -41.875 6.171875 -42.867188 6.234375 -43.546875 C 6.773438 -45.691406 7.476562 -47.164062 8.34375 -47.96875 C 9.28125 -48.769531 10.625 -49.273438 12.375 -49.484375 C 13.78125 -49.679688 16.289062 -49.78125 19.90625 -49.78125 Z M 19.90625 -49.78125 "/></g></g></g><g fill="#ffffff" fill-opacity="1"><g transform="translate(117.514794, 79.948022)"><g><path d="M 45.359375 -61.75 C 45.554688 -63.019531 45.859375 -64.09375 46.265625 -64.96875 C 46.859375 -66.300781 47.660156 -67.304688 48.671875 -67.984375 C 49.546875 -68.648438 50.519531 -69.117188 51.59375 -69.390625 C 52.195312 -69.585938 52.832031 -69.753906 53.5 -69.890625 C 54.164062 -70.023438 54.867188 -70.125 55.609375 -70.1875 C 56.148438 -70.257812 56.71875 -70.3125 57.3125 -70.34375 C 57.914062 -70.375 58.554688 -70.390625 59.234375 -70.390625 L 64.0625 -70.390625 C 62.988281 -69.390625 62.179688 -68.6875 61.640625 -68.28125 C 61.378906 -68.007812 61.144531 -67.773438 60.9375 -67.578125 C 60.738281 -67.378906 60.570312 -67.175781 60.4375 -66.96875 C 60.164062 -66.632812 59.929688 -66.203125 59.734375 -65.671875 C 59.734375 -65.335938 59.632812 -64.765625 59.4375 -63.953125 L 57.625 -49.78125 L 53.203125 -17.90625 L 52.6875 -14.171875 C 52.488281 -12.429688 52.289062 -10.957031 52.09375 -9.75 C 51.894531 -8.539062 51.726562 -7.640625 51.59375 -7.046875 C 51.1875 -4.898438 50.613281 -3.351562 49.875 -2.40625 C 49.007812 -1.207031 47.269531 -0.472656 44.65625 -0.203125 C 43.976562 -0.128906 42.96875 -0.078125 41.625 -0.046875 C 40.289062 -0.015625 38.617188 0 36.609375 0 L 13.984375 0 C 12.304688 0 10.894531 -0.015625 9.75 -0.046875 C 8.613281 -0.078125 7.742188 -0.09375 7.140625 -0.09375 C 4.054688 -0.300781 2.179688 -1.109375 1.515625 -2.515625 C 1.171875 -3.316406 1 -4.289062 1 -5.4375 C 1 -5.769531 1.015625 -6.085938 1.046875 -6.390625 C 1.085938 -6.691406 1.109375 -7.007812 1.109375 -7.34375 C 1.242188 -8.613281 1.546875 -10.890625 2.015625 -14.171875 C 2.210938 -15.515625 2.445312 -17.140625 2.71875 -19.046875 C 2.988281 -20.960938 3.289062 -23.160156 3.625 -25.640625 C 4.019531 -28.191406 4.332031 -30.285156 4.5625 -31.921875 C 4.800781 -33.566406 4.957031 -34.828125 5.03125 -35.703125 C 5.5625 -39.660156 5.960938 -42.207031 6.234375 -43.34375 C 6.773438 -45.625 7.476562 -47.164062 8.34375 -47.96875 C 9.144531 -48.769531 10.453125 -49.273438 12.265625 -49.484375 C 13.671875 -49.679688 16.21875 -49.78125 19.90625 -49.78125 L 43.34375 -49.78125 Z M 23.4375 -35.703125 C 23.226562 -35.703125 22.957031 -35.703125 22.625 -35.703125 C 22.289062 -35.703125 21.851562 -35.664062 21.3125 -35.59375 C 20.84375 -35.59375 20.546875 -35.5625 20.421875 -35.5 C 20.210938 -35.5 19.972656 -35.363281 19.703125 -35.09375 C 19.503906 -34.894531 19.304688 -34.492188 19.109375 -33.890625 C 19.109375 -33.617188 19.007812 -32.984375 18.8125 -31.984375 L 16.296875 -14.171875 L 36.5 -14.171875 C 37.238281 -14.304688 37.707031 -14.507812 37.90625 -14.78125 C 38.113281 -14.976562 38.285156 -15.3125 38.421875 -15.78125 C 38.546875 -15.988281 38.640625 -16.273438 38.703125 -16.640625 C 38.773438 -17.015625 38.847656 -17.4375 38.921875 -17.90625 L 41.328125 -35.703125 Z M 23.4375 -35.703125 "/></g></g></g><g fill="#ffffff" fill-opacity="1"><g transform="translate(173.926691, 79.948022)"><g><path d="M 45.859375 -49.875 C 48.804688 -49.875 50.882812 -49.773438 52.09375 -49.578125 C 53.5625 -49.378906 54.566406 -49.046875 55.109375 -48.578125 C 56.109375 -47.898438 56.609375 -46.488281 56.609375 -44.34375 C 56.609375 -44.144531 56.609375 -43.941406 56.609375 -43.734375 C 56.609375 -43.535156 56.578125 -43.269531 56.515625 -42.9375 C 56.515625 -42.332031 56.445312 -41.425781 56.3125 -40.21875 C 56.175781 -39.019531 55.976562 -37.515625 55.71875 -35.703125 L 54.109375 -24.4375 L 52.6875 -14.171875 C 52.425781 -11.765625 52.144531 -9.804688 51.84375 -8.296875 C 51.539062 -6.785156 51.253906 -5.660156 50.984375 -4.921875 C 50.578125 -3.515625 49.90625 -2.441406 48.96875 -1.703125 C 48.238281 -1.171875 47.132812 -0.738281 45.65625 -0.40625 C 44.988281 -0.332031 43.847656 -0.242188 42.234375 -0.140625 C 40.628906 -0.046875 38.550781 0 36 0 L 14.171875 0 C 11.765625 0 9.789062 -0.046875 8.25 -0.140625 C 6.707031 -0.242188 5.566406 -0.332031 4.828125 -0.40625 C 3.421875 -0.738281 2.414062 -1.238281 1.8125 -1.90625 C 1.269531 -2.644531 1 -3.820312 1 -5.4375 L 1 -6.03125 C 1.132812 -7.4375 1.4375 -10.148438 1.90625 -14.171875 L 2.515625 -17.90625 C 2.785156 -19.707031 3.019531 -21.210938 3.21875 -22.421875 C 3.414062 -23.628906 3.550781 -24.535156 3.625 -25.140625 C 4.09375 -27.484375 4.757812 -29.09375 5.625 -29.96875 C 6.570312 -30.90625 7.878906 -31.472656 9.546875 -31.671875 C 10.960938 -31.878906 13.546875 -31.984375 17.296875 -31.984375 L 38.3125 -31.984375 C 38.71875 -31.984375 39.070312 -32 39.375 -32.03125 C 39.675781 -32.0625 39.859375 -32.078125 39.921875 -32.078125 C 40.253906 -32.148438 40.554688 -32.316406 40.828125 -32.578125 C 41.023438 -32.785156 41.125 -33.085938 41.125 -33.484375 C 41.257812 -33.890625 41.363281 -34.628906 41.4375 -35.703125 L 19.3125 -35.703125 C 17.5 -35.703125 15.972656 -35.71875 14.734375 -35.75 C 13.492188 -35.78125 12.570312 -35.832031 11.96875 -35.90625 C 10.226562 -36.164062 8.988281 -36.769531 8.25 -37.71875 C 7.644531 -38.65625 7.242188 -40.195312 7.046875 -42.34375 C 7.046875 -42.9375 7.023438 -43.738281 6.984375 -44.75 C 6.953125 -45.757812 6.9375 -46.898438 6.9375 -48.171875 L 6.9375 -49.875 Z M 19.109375 -17.90625 C 18.234375 -17.90625 17.726562 -17.867188 17.59375 -17.796875 C 17.394531 -17.796875 17.160156 -17.660156 16.890625 -17.390625 C 16.753906 -17.265625 16.625 -16.765625 16.5 -15.890625 C 16.5 -15.554688 16.394531 -14.984375 16.1875 -14.171875 L 35.90625 -14.171875 C 36.300781 -14.171875 36.648438 -14.1875 36.953125 -14.21875 C 37.253906 -14.257812 37.441406 -14.28125 37.515625 -14.28125 C 37.910156 -14.34375 38.144531 -14.476562 38.21875 -14.6875 C 38.351562 -14.820312 38.484375 -15.15625 38.609375 -15.6875 C 38.742188 -16.09375 38.847656 -16.832031 38.921875 -17.90625 Z M 19.109375 -17.90625 "/></g></g></g><g fill="#ffffff" fill-opacity="1"><g transform="translate(229.936367, 79.948022)"><g><path d="M 6.03125 -35.59375 C 6.300781 -37.539062 6.535156 -39.132812 6.734375 -40.375 C 6.941406 -41.613281 7.078125 -42.535156 7.140625 -43.140625 C 7.546875 -45.222656 8.113281 -46.664062 8.84375 -47.46875 C 9.65625 -48.601562 11 -49.273438 12.875 -49.484375 C 14.21875 -49.679688 16.328125 -49.78125 19.203125 -49.78125 L 47.46875 -49.78125 C 48.40625 -49.78125 49.222656 -49.78125 49.921875 -49.78125 C 50.628906 -49.78125 51.21875 -49.742188 51.6875 -49.671875 C 53.769531 -49.609375 55.242188 -49.242188 56.109375 -48.578125 C 57.117188 -47.898438 57.625 -46.457031 57.625 -44.25 C 57.625 -42.90625 57.320312 -40.019531 56.71875 -35.59375 L 56.21875 -31.984375 L 54.203125 -17.796875 L 53.703125 -14.078125 C 53.429688 -12.003906 53.175781 -10.28125 52.9375 -8.90625 C 52.707031 -7.53125 52.492188 -6.503906 52.296875 -5.828125 C 51.890625 -4.359375 51.382812 -3.1875 50.78125 -2.3125 C 49.976562 -1.4375 48.738281 -0.800781 47.0625 -0.40625 C 46.394531 -0.332031 45.253906 -0.242188 43.640625 -0.140625 C 42.035156 -0.046875 39.957031 0 37.40625 0 L 39.421875 -14.078125 L 39.921875 -17.796875 L 41.9375 -31.984375 L 42.4375 -35.59375 L 24.03125 -35.59375 C 23.757812 -35.664062 23.523438 -35.703125 23.328125 -35.703125 C 23.128906 -35.703125 22.929688 -35.703125 22.734375 -35.703125 C 22.253906 -35.703125 21.953125 -35.664062 21.828125 -35.59375 C 21.359375 -35.59375 21.019531 -35.492188 20.8125 -35.296875 C 20.550781 -35.023438 20.316406 -34.625 20.109375 -34.09375 C 20.109375 -33.820312 20.007812 -33.117188 19.8125 -31.984375 L 17.796875 -17.796875 L 17.296875 -14.078125 C 16.828125 -10.523438 16.425781 -8.078125 16.09375 -6.734375 C 15.882812 -5.660156 15.613281 -4.753906 15.28125 -4.015625 C 14.945312 -3.285156 14.578125 -2.648438 14.171875 -2.109375 C 13.304688 -1.109375 11.765625 -0.472656 9.546875 -0.203125 C 8.878906 -0.128906 7.875 -0.078125 6.53125 -0.046875 C 5.195312 -0.015625 3.554688 0 1.609375 0 L -3.015625 0 C -1.671875 -1.132812 -0.832031 -1.875 -0.5 -2.21875 C 0.300781 -2.882812 0.835938 -3.421875 1.109375 -3.828125 C 1.242188 -4.023438 1.34375 -4.207031 1.40625 -4.375 C 1.476562 -4.539062 1.546875 -4.722656 1.609375 -4.921875 C 1.742188 -5.265625 1.878906 -5.972656 2.015625 -7.046875 L 3.015625 -14.078125 L 3.515625 -17.796875 L 5.53125 -31.984375 Z M 6.03125 -35.59375 "/></g></g></g><g fill="#ffffff" fill-opacity="1"><g transform="translate(286.951606, 79.948022)"><g><path d="M 25.140625 -70.390625 L 22.828125 -53.5 L 8.546875 -53.5 L 8.84375 -56.21875 C 9.1875 -58.15625 9.457031 -59.742188 9.65625 -60.984375 C 9.851562 -62.234375 10.019531 -63.15625 10.15625 -63.75 C 10.5625 -65.832031 11.128906 -67.273438 11.859375 -68.078125 C 12.804688 -69.148438 14.148438 -69.820312 15.890625 -70.09375 C 17.429688 -70.289062 20.515625 -70.390625 25.140625 -70.390625 Z M 8.046875 -49.875 L 22.328125 -49.875 L 17.296875 -14.078125 C 17.023438 -12.203125 16.789062 -10.625 16.59375 -9.34375 C 16.394531 -8.070312 16.191406 -7.101562 15.984375 -6.4375 C 15.585938 -4.351562 14.921875 -2.84375 13.984375 -1.90625 C 12.910156 -0.96875 11.300781 -0.398438 9.15625 -0.203125 C 8.476562 -0.128906 7.519531 -0.078125 6.28125 -0.046875 C 5.039062 -0.015625 3.515625 0 1.703125 0 L -3.015625 0 C -2.410156 -0.53125 -1.921875 -0.960938 -1.546875 -1.296875 C -1.179688 -1.640625 -0.898438 -1.910156 -0.703125 -2.109375 C 0.171875 -2.984375 0.707031 -3.554688 0.90625 -3.828125 C 1.238281 -4.296875 1.472656 -4.796875 1.609375 -5.328125 C 1.804688 -5.660156 1.941406 -6.332031 2.015625 -7.34375 Z M 8.046875 -49.875 "/></g></g></g></g></g><g transform="matrix(1, 0, 0, 1, 149, 0)"><g clip-path="url(#128f70f72c)"><g fill="#000000" fill-opacity="1"><g transform="translate(0.965111, 29.637235)"><g><path d="M 8.546875 -16.375 C 8.566406 -16.320312 8.597656 -16.289062 8.640625 -16.28125 C 8.640625 -16.125 8.644531 -15.96875 8.65625 -15.8125 C 8.664062 -15.65625 8.671875 -15.5 8.671875 -15.34375 C 8.648438 -14.9375 8.640625 -14.523438 8.640625 -14.109375 C 8.640625 -13.691406 8.640625 -13.28125 8.640625 -12.875 C 8.628906 -12.625 8.625 -12.363281 8.625 -12.09375 C 8.625 -11.832031 8.613281 -11.570312 8.59375 -11.3125 C 8.59375 -11.269531 8.59375 -11.21875 8.59375 -11.15625 C 8.59375 -11.101562 8.601562 -11.046875 8.625 -10.984375 C 8.632812 -10.753906 8.632812 -10.515625 8.625 -10.265625 C 8.625 -10.023438 8.628906 -9.78125 8.640625 -9.53125 C 8.671875 -9.269531 8.679688 -9 8.671875 -8.71875 C 8.671875 -8.4375 8.671875 -8.160156 8.671875 -7.890625 C 8.648438 -6.703125 8.640625 -5.507812 8.640625 -4.3125 C 8.640625 -3.125 8.640625 -1.925781 8.640625 -0.71875 C 8.640625 -0.644531 8.632812 -0.5625 8.625 -0.46875 C 8.625 -0.382812 8.613281 -0.296875 8.59375 -0.203125 C 8.59375 -0.078125 8.539062 -0.0078125 8.4375 0 C 8.414062 0 8.394531 0 8.375 0 C 8.351562 0.0078125 8.328125 0.015625 8.296875 0.015625 C 8.242188 0.015625 8.191406 0.015625 8.140625 0.015625 C 8.097656 0.015625 8.054688 0.0234375 8.015625 0.046875 C 7.984375 0.046875 7.957031 0.0351562 7.9375 0.015625 C 7.84375 -0.00390625 7.75 -0.0078125 7.65625 0 C 7.5625 0 7.46875 0 7.375 0 C 7.363281 0 7.351562 0 7.34375 0 C 7.332031 0 7.328125 0 7.328125 0 C 7.253906 0.0078125 7.175781 0.0195312 7.09375 0.03125 C 7.019531 0.0390625 6.941406 0.046875 6.859375 0.046875 C 6.722656 0.046875 6.582031 0.046875 6.4375 0.046875 C 6.300781 0.0546875 6.15625 0.0625 6 0.0625 C 5.351562 0.0625 4.707031 0.0625 4.0625 0.0625 C 3.425781 0.0625 2.789062 0.0625 2.15625 0.0625 C 2.101562 0.0625 2.050781 0.0625 2 0.0625 C 1.957031 0.0625 1.90625 0.0625 1.84375 0.0625 C 1.769531 0.0625 1.707031 0.0351562 1.65625 -0.015625 C 1.65625 -0.0976562 1.65625 -0.179688 1.65625 -0.265625 C 1.65625 -0.347656 1.65625 -0.4375 1.65625 -0.53125 C 1.65625 -0.644531 1.65625 -0.75 1.65625 -0.84375 C 1.65625 -0.945312 1.65625 -1.054688 1.65625 -1.171875 C 1.675781 -1.335938 1.6875 -1.507812 1.6875 -1.6875 C 1.6875 -1.875 1.6875 -2.050781 1.6875 -2.21875 C 1.695312 -2.332031 1.707031 -2.4375 1.71875 -2.53125 C 1.726562 -2.632812 1.722656 -2.742188 1.703125 -2.859375 C 1.691406 -3.273438 1.6875 -3.691406 1.6875 -4.109375 C 1.695312 -4.535156 1.695312 -4.960938 1.6875 -5.390625 C 1.664062 -5.960938 1.660156 -6.53125 1.671875 -7.09375 C 1.679688 -7.65625 1.675781 -8.226562 1.65625 -8.8125 C 1.65625 -8.976562 1.660156 -9.140625 1.671875 -9.296875 C 1.679688 -9.453125 1.6875 -9.609375 1.6875 -9.765625 C 1.695312 -9.847656 1.703125 -9.925781 1.703125 -10 C 1.703125 -10.082031 1.703125 -10.15625 1.703125 -10.21875 C 1.703125 -10.34375 1.703125 -10.46875 1.703125 -10.59375 C 1.703125 -10.726562 1.695312 -10.859375 1.6875 -10.984375 C 1.664062 -11.160156 1.65625 -11.332031 1.65625 -11.5 C 1.65625 -11.664062 1.65625 -11.835938 1.65625 -12.015625 C 1.65625 -12.453125 1.660156 -12.882812 1.671875 -13.3125 C 1.679688 -13.738281 1.675781 -14.171875 1.65625 -14.609375 C 1.644531 -14.859375 1.640625 -15.101562 1.640625 -15.34375 C 1.640625 -15.59375 1.640625 -15.84375 1.640625 -16.09375 C 1.640625 -16.125 1.640625 -16.15625 1.640625 -16.1875 C 1.640625 -16.226562 1.640625 -16.257812 1.640625 -16.28125 C 1.679688 -16.351562 1.742188 -16.390625 1.828125 -16.390625 C 1.929688 -16.378906 2.035156 -16.375 2.140625 -16.375 C 2.253906 -16.375 2.367188 -16.363281 2.484375 -16.34375 C 2.492188 -16.34375 2.503906 -16.34375 2.515625 -16.34375 C 2.523438 -16.34375 2.535156 -16.34375 2.546875 -16.34375 C 2.671875 -16.34375 2.789062 -16.34375 2.90625 -16.34375 C 3.03125 -16.34375 3.15625 -16.34375 3.28125 -16.34375 C 3.375 -16.34375 3.46875 -16.347656 3.5625 -16.359375 C 3.664062 -16.367188 3.773438 -16.375 3.890625 -16.375 C 4.078125 -16.351562 4.257812 -16.34375 4.4375 -16.34375 C 4.613281 -16.34375 4.796875 -16.335938 4.984375 -16.328125 C 5.066406 -16.328125 5.15625 -16.328125 5.25 -16.328125 C 5.34375 -16.328125 5.425781 -16.328125 5.5 -16.328125 C 5.613281 -16.328125 5.71875 -16.328125 5.8125 -16.328125 C 5.90625 -16.335938 6.003906 -16.34375 6.109375 -16.34375 C 6.191406 -16.375 6.28125 -16.375 6.375 -16.34375 C 6.53125 -16.34375 6.679688 -16.34375 6.828125 -16.34375 C 6.972656 -16.34375 7.125 -16.351562 7.28125 -16.375 C 7.3125 -16.375 7.34375 -16.375 7.375 -16.375 C 7.40625 -16.375 7.4375 -16.375 7.46875 -16.375 C 7.59375 -16.375 7.722656 -16.375 7.859375 -16.375 C 7.992188 -16.382812 8.125 -16.390625 8.25 -16.390625 C 8.289062 -16.390625 8.332031 -16.382812 8.375 -16.375 C 8.425781 -16.375 8.484375 -16.375 8.546875 -16.375 Z M 8.546875 -16.375 "/></g></g></g><g fill="#000000" fill-opacity="1"><g transform="translate(15.152089, 29.637235)"><g><path d="M 25.03125 -16.09375 C 25.019531 -16.070312 25.015625 -16.050781 25.015625 -16.03125 C 25.015625 -16.007812 25.015625 -15.984375 25.015625 -15.953125 C 25.015625 -15.703125 25.007812 -15.453125 25 -15.203125 C 24.988281 -14.953125 24.984375 -14.691406 24.984375 -14.421875 C 24.984375 -14.097656 24.984375 -13.769531 24.984375 -13.4375 C 24.984375 -13.113281 24.984375 -12.796875 24.984375 -12.484375 C 24.984375 -12.398438 24.984375 -12.316406 24.984375 -12.234375 C 24.984375 -12.160156 24.976562 -12.085938 24.96875 -12.015625 C 24.90625 -11.992188 24.84375 -11.992188 24.78125 -12.015625 C 24.757812 -12.015625 24.734375 -12.015625 24.703125 -12.015625 C 24.671875 -12.015625 24.640625 -12.015625 24.609375 -12.015625 C 24.128906 -12.015625 23.648438 -12.015625 23.171875 -12.015625 C 22.703125 -12.023438 22.222656 -12.023438 21.734375 -12.015625 C 21.296875 -11.992188 20.847656 -11.988281 20.390625 -12 C 19.941406 -12.007812 19.492188 -12.003906 19.046875 -11.984375 C 18.929688 -11.984375 18.816406 -11.976562 18.703125 -11.96875 C 18.597656 -11.96875 18.492188 -11.957031 18.390625 -11.9375 C 18.390625 -11.9375 18.382812 -11.9375 18.375 -11.9375 C 18.363281 -11.9375 18.359375 -11.9375 18.359375 -11.9375 C 18.234375 -11.9375 18.109375 -11.929688 17.984375 -11.921875 C 17.859375 -11.921875 17.734375 -11.925781 17.609375 -11.9375 C 17.503906 -11.957031 17.390625 -11.96875 17.265625 -11.96875 C 17.148438 -11.96875 17.039062 -11.96875 16.9375 -11.96875 C 16.914062 -11.96875 16.894531 -11.96875 16.875 -11.96875 C 16.863281 -11.96875 16.84375 -11.96875 16.8125 -11.96875 C 16.8125 -11.945312 16.8125 -11.929688 16.8125 -11.921875 C 16.8125 -11.660156 16.8125 -11.398438 16.8125 -11.140625 C 16.8125 -10.878906 16.8125 -10.617188 16.8125 -10.359375 C 16.8125 -10.265625 16.816406 -10.171875 16.828125 -10.078125 C 16.847656 -9.992188 16.851562 -9.914062 16.84375 -9.84375 C 16.820312 -9.6875 16.8125 -9.53125 16.8125 -9.375 C 16.8125 -9.21875 16.8125 -9.050781 16.8125 -8.875 C 16.84375 -8.269531 16.847656 -7.65625 16.828125 -7.03125 C 16.816406 -6.414062 16.820312 -5.804688 16.84375 -5.203125 C 16.820312 -4.992188 16.8125 -4.785156 16.8125 -4.578125 C 16.8125 -4.378906 16.8125 -4.179688 16.8125 -3.984375 C 16.800781 -3.640625 16.789062 -3.289062 16.78125 -2.9375 C 16.769531 -2.582031 16.773438 -2.226562 16.796875 -1.875 C 16.804688 -1.625 16.8125 -1.375 16.8125 -1.125 C 16.8125 -0.882812 16.8125 -0.640625 16.8125 -0.390625 C 16.8125 -0.378906 16.8125 -0.367188 16.8125 -0.359375 C 16.8125 -0.347656 16.8125 -0.335938 16.8125 -0.328125 C 16.84375 -0.273438 16.847656 -0.222656 16.828125 -0.171875 C 16.816406 -0.128906 16.804688 -0.0859375 16.796875 -0.046875 C 16.703125 -0.046875 16.609375 -0.046875 16.515625 -0.046875 C 16.429688 -0.046875 16.34375 -0.046875 16.25 -0.046875 C 16 -0.015625 15.753906 0 15.515625 0 C 15.285156 -0.0078125 15.046875 -0.0078125 14.796875 0 C 14.078125 0 13.351562 0 12.625 0 C 11.894531 -0.0078125 11.160156 -0.015625 10.421875 -0.015625 C 10.347656 -0.015625 10.273438 -0.0078125 10.203125 0 C 10.128906 0 10.054688 0 9.984375 0 C 9.929688 0 9.882812 -0.00390625 9.84375 -0.015625 C 9.84375 -0.0976562 9.84375 -0.171875 9.84375 -0.234375 C 9.84375 -0.296875 9.84375 -0.359375 9.84375 -0.421875 C 9.820312 -0.640625 9.8125 -0.851562 9.8125 -1.0625 C 9.8125 -1.269531 9.8125 -1.484375 9.8125 -1.703125 C 9.800781 -1.796875 9.789062 -1.890625 9.78125 -1.984375 C 9.769531 -2.078125 9.765625 -2.179688 9.765625 -2.296875 C 9.753906 -2.304688 9.75 -2.335938 9.75 -2.390625 C 9.75 -2.617188 9.75 -2.847656 9.75 -3.078125 C 9.75 -3.304688 9.753906 -3.535156 9.765625 -3.765625 C 9.785156 -4.035156 9.789062 -4.300781 9.78125 -4.5625 C 9.769531 -4.832031 9.773438 -5.09375 9.796875 -5.34375 C 9.796875 -5.445312 9.796875 -5.550781 9.796875 -5.65625 C 9.804688 -5.757812 9.820312 -5.863281 9.84375 -5.96875 C 9.84375 -6.0625 9.84375 -6.148438 9.84375 -6.234375 C 9.851562 -6.328125 9.84375 -6.421875 9.8125 -6.515625 C 9.800781 -6.554688 9.796875 -6.601562 9.796875 -6.65625 C 9.804688 -6.71875 9.8125 -6.769531 9.8125 -6.8125 C 9.8125 -6.9375 9.816406 -7.0625 9.828125 -7.1875 C 9.835938 -7.3125 9.832031 -7.4375 9.8125 -7.5625 C 9.800781 -7.769531 9.796875 -7.96875 9.796875 -8.15625 C 9.804688 -8.351562 9.8125 -8.554688 9.8125 -8.765625 C 9.8125 -8.867188 9.816406 -8.972656 9.828125 -9.078125 C 9.835938 -9.191406 9.84375 -9.296875 9.84375 -9.390625 C 9.820312 -9.671875 9.816406 -9.953125 9.828125 -10.234375 C 9.835938 -10.515625 9.832031 -10.796875 9.8125 -11.078125 C 9.800781 -11.160156 9.796875 -11.242188 9.796875 -11.328125 C 9.796875 -11.410156 9.796875 -11.492188 9.796875 -11.578125 C 9.796875 -11.691406 9.800781 -11.773438 9.8125 -11.828125 C 9.8125 -11.859375 9.8125 -11.878906 9.8125 -11.890625 C 9.8125 -11.910156 9.8125 -11.925781 9.8125 -11.9375 C 9.769531 -11.9375 9.722656 -11.941406 9.671875 -11.953125 C 9.628906 -11.960938 9.582031 -11.96875 9.53125 -11.96875 C 9.425781 -11.976562 9.304688 -11.984375 9.171875 -11.984375 C 9.035156 -11.984375 8.90625 -11.984375 8.78125 -11.984375 C 8.4375 -11.984375 8.082031 -11.984375 7.71875 -11.984375 C 7.363281 -11.984375 7.007812 -11.992188 6.65625 -12.015625 C 6.445312 -12.015625 6.238281 -12.015625 6.03125 -12.015625 C 5.832031 -12.023438 5.632812 -12.023438 5.4375 -12.015625 C 5.320312 -12.015625 5.207031 -12.015625 5.09375 -12.015625 C 4.976562 -12.015625 4.859375 -12.003906 4.734375 -11.984375 C 4.554688 -11.972656 4.378906 -11.960938 4.203125 -11.953125 C 4.023438 -11.941406 3.847656 -11.9375 3.671875 -11.9375 C 3.515625 -11.925781 3.347656 -11.921875 3.171875 -11.921875 C 3.003906 -11.921875 2.835938 -11.921875 2.671875 -11.921875 C 2.554688 -11.921875 2.441406 -11.921875 2.328125 -11.921875 C 2.210938 -11.929688 2.09375 -11.9375 1.96875 -11.9375 C 1.9375 -11.9375 1.898438 -11.941406 1.859375 -11.953125 C 1.816406 -11.960938 1.773438 -11.972656 1.734375 -11.984375 C 1.734375 -12.035156 1.726562 -12.085938 1.71875 -12.140625 C 1.707031 -12.191406 1.695312 -12.25 1.6875 -12.3125 C 1.664062 -12.53125 1.660156 -12.75 1.671875 -12.96875 C 1.679688 -13.1875 1.675781 -13.40625 1.65625 -13.625 C 1.65625 -13.707031 1.65625 -13.78125 1.65625 -13.84375 C 1.65625 -13.914062 1.65625 -13.992188 1.65625 -14.078125 C 1.65625 -14.242188 1.65625 -14.40625 1.65625 -14.5625 C 1.65625 -14.71875 1.648438 -14.875 1.640625 -15.03125 C 1.640625 -15.113281 1.640625 -15.179688 1.640625 -15.234375 C 1.640625 -15.285156 1.640625 -15.34375 1.640625 -15.40625 C 1.648438 -15.488281 1.660156 -15.570312 1.671875 -15.65625 C 1.679688 -15.738281 1.6875 -15.820312 1.6875 -15.90625 C 1.6875 -15.96875 1.6875 -16.019531 1.6875 -16.0625 C 1.6875 -16.113281 1.6875 -16.160156 1.6875 -16.203125 C 1.726562 -16.222656 1.804688 -16.234375 1.921875 -16.234375 C 2.046875 -16.234375 2.125 -16.234375 2.15625 -16.234375 C 2.21875 -16.210938 2.28125 -16.195312 2.34375 -16.1875 C 2.40625 -16.1875 2.46875 -16.1875 2.53125 -16.1875 C 2.75 -16.1875 2.957031 -16.1875 3.15625 -16.1875 C 3.363281 -16.1875 3.566406 -16.191406 3.765625 -16.203125 C 3.859375 -16.222656 3.953125 -16.226562 4.046875 -16.21875 C 4.140625 -16.207031 4.234375 -16.210938 4.328125 -16.234375 C 4.566406 -16.265625 4.804688 -16.28125 5.046875 -16.28125 C 5.285156 -16.28125 5.53125 -16.269531 5.78125 -16.25 C 6.1875 -16.238281 6.59375 -16.234375 7 -16.234375 C 7.40625 -16.242188 7.804688 -16.242188 8.203125 -16.234375 C 8.328125 -16.210938 8.457031 -16.207031 8.59375 -16.21875 C 8.738281 -16.226562 8.875 -16.222656 9 -16.203125 C 9.226562 -16.191406 9.457031 -16.1875 9.6875 -16.1875 C 9.925781 -16.1875 10.15625 -16.1875 10.375 -16.1875 C 10.488281 -16.1875 10.59375 -16.1875 10.6875 -16.1875 C 10.789062 -16.195312 10.898438 -16.203125 11.015625 -16.203125 C 11.117188 -16.203125 11.222656 -16.207031 11.328125 -16.21875 C 11.429688 -16.226562 11.535156 -16.234375 11.640625 -16.234375 C 11.773438 -16.242188 11.910156 -16.25 12.046875 -16.25 C 12.191406 -16.25 12.335938 -16.25 12.484375 -16.25 C 12.617188 -16.25 12.757812 -16.238281 12.90625 -16.21875 C 13.0625 -16.207031 13.207031 -16.203125 13.34375 -16.203125 C 13.519531 -16.203125 13.6875 -16.203125 13.84375 -16.203125 C 14 -16.203125 14.15625 -16.210938 14.3125 -16.234375 C 14.34375 -16.234375 14.367188 -16.234375 14.390625 -16.234375 C 14.410156 -16.234375 14.429688 -16.234375 14.453125 -16.234375 C 14.859375 -16.234375 15.265625 -16.234375 15.671875 -16.234375 C 16.085938 -16.234375 16.492188 -16.234375 16.890625 -16.234375 C 16.960938 -16.234375 17.03125 -16.234375 17.09375 -16.234375 C 17.15625 -16.234375 17.21875 -16.234375 17.28125 -16.234375 C 17.394531 -16.234375 17.5 -16.234375 17.59375 -16.234375 C 17.6875 -16.234375 17.785156 -16.234375 17.890625 -16.234375 C 17.941406 -16.234375 17.988281 -16.234375 18.03125 -16.234375 C 18.082031 -16.234375 18.128906 -16.234375 18.171875 -16.234375 C 18.484375 -16.234375 18.800781 -16.234375 19.125 -16.234375 C 19.445312 -16.234375 19.753906 -16.234375 20.046875 -16.234375 C 20.203125 -16.234375 20.347656 -16.234375 20.484375 -16.234375 C 20.628906 -16.242188 20.773438 -16.25 20.921875 -16.25 C 21.328125 -16.238281 21.734375 -16.234375 22.140625 -16.234375 C 22.554688 -16.242188 22.972656 -16.242188 23.390625 -16.234375 C 23.660156 -16.210938 23.9375 -16.207031 24.21875 -16.21875 C 24.5 -16.226562 24.769531 -16.222656 25.03125 -16.203125 C 25.03125 -16.191406 25.03125 -16.175781 25.03125 -16.15625 C 25.03125 -16.144531 25.03125 -16.125 25.03125 -16.09375 Z M 25.03125 -16.09375 "/></g></g></g><g fill="#000000" fill-opacity="1"><g transform="translate(45.674871, 29.637235)"><g><path d="M 8.015625 -15.5 C 8.046875 -15.457031 8.066406 -15.421875 8.078125 -15.390625 C 8.097656 -15.359375 8.113281 -15.328125 8.125 -15.296875 C 8.238281 -15.078125 8.34375 -14.859375 8.4375 -14.640625 C 8.539062 -14.421875 8.640625 -14.203125 8.734375 -13.984375 C 8.785156 -13.867188 8.832031 -13.753906 8.875 -13.640625 C 8.925781 -13.523438 8.972656 -13.40625 9.015625 -13.28125 C 9.046875 -13.226562 9.066406 -13.179688 9.078125 -13.140625 C 9.097656 -13.109375 9.117188 -13.078125 9.140625 -13.046875 C 9.210938 -12.867188 9.285156 -12.691406 9.359375 -12.515625 C 9.441406 -12.347656 9.523438 -12.179688 9.609375 -12.015625 C 9.640625 -11.929688 9.675781 -11.847656 9.71875 -11.765625 C 9.769531 -11.691406 9.816406 -11.617188 9.859375 -11.546875 C 9.890625 -11.484375 9.925781 -11.414062 9.96875 -11.34375 C 10.007812 -11.28125 10.046875 -11.207031 10.078125 -11.125 C 10.117188 -11.050781 10.160156 -10.96875 10.203125 -10.875 C 10.242188 -10.789062 10.285156 -10.710938 10.328125 -10.640625 C 10.453125 -10.359375 10.585938 -10.066406 10.734375 -9.765625 C 10.710938 -9.765625 10.691406 -9.757812 10.671875 -9.75 C 10.648438 -9.75 10.628906 -9.75 10.609375 -9.75 C 10.410156 -9.75 10.203125 -9.75 9.984375 -9.75 C 9.773438 -9.757812 9.5625 -9.757812 9.34375 -9.75 C 9.125 -9.726562 8.898438 -9.71875 8.671875 -9.71875 C 8.453125 -9.71875 8.234375 -9.71875 8.015625 -9.71875 C 7.773438 -9.707031 7.539062 -9.695312 7.3125 -9.6875 C 7.09375 -9.675781 6.875 -9.679688 6.65625 -9.703125 C 6.53125 -9.703125 6.40625 -9.703125 6.28125 -9.703125 C 6.164062 -9.710938 6.046875 -9.71875 5.921875 -9.71875 C 5.765625 -9.707031 5.601562 -9.703125 5.4375 -9.703125 C 5.28125 -9.703125 5.113281 -9.703125 4.9375 -9.703125 C 4.84375 -9.703125 4.742188 -9.703125 4.640625 -9.703125 C 4.546875 -9.710938 4.441406 -9.71875 4.328125 -9.71875 C 4.316406 -9.769531 4.296875 -9.820312 4.265625 -9.875 C 4.242188 -9.925781 4.21875 -9.976562 4.1875 -10.03125 C 4.113281 -10.195312 4.03125 -10.363281 3.9375 -10.53125 C 3.851562 -10.695312 3.773438 -10.863281 3.703125 -11.03125 C 3.640625 -11.175781 3.570312 -11.320312 3.5 -11.46875 C 3.425781 -11.613281 3.359375 -11.765625 3.296875 -11.921875 C 3.234375 -12.078125 3.164062 -12.234375 3.09375 -12.390625 C 3.03125 -12.554688 2.957031 -12.71875 2.875 -12.875 C 2.84375 -12.957031 2.804688 -13.039062 2.765625 -13.125 C 2.734375 -13.207031 2.691406 -13.296875 2.640625 -13.390625 C 2.597656 -13.472656 2.554688 -13.554688 2.515625 -13.640625 C 2.472656 -13.722656 2.429688 -13.8125 2.390625 -13.90625 C 2.328125 -14.03125 2.265625 -14.148438 2.203125 -14.265625 C 2.148438 -14.390625 2.09375 -14.515625 2.03125 -14.640625 C 1.96875 -14.742188 1.910156 -14.847656 1.859375 -14.953125 C 1.816406 -15.054688 1.773438 -15.160156 1.734375 -15.265625 C 1.710938 -15.296875 1.691406 -15.328125 1.671875 -15.359375 C 1.660156 -15.390625 1.648438 -15.421875 1.640625 -15.453125 C 1.671875 -15.453125 1.691406 -15.453125 1.703125 -15.453125 C 1.722656 -15.453125 1.738281 -15.453125 1.75 -15.453125 C 1.875 -15.472656 2 -15.484375 2.125 -15.484375 C 2.25 -15.484375 2.367188 -15.484375 2.484375 -15.484375 C 2.703125 -15.484375 2.910156 -15.484375 3.109375 -15.484375 C 3.316406 -15.492188 3.519531 -15.5 3.71875 -15.5 C 3.9375 -15.488281 4.160156 -15.484375 4.390625 -15.484375 C 4.617188 -15.484375 4.84375 -15.484375 5.0625 -15.484375 C 5.164062 -15.484375 5.269531 -15.484375 5.375 -15.484375 C 5.476562 -15.492188 5.578125 -15.507812 5.671875 -15.53125 C 5.703125 -15.53125 5.722656 -15.53125 5.734375 -15.53125 C 5.753906 -15.53125 5.769531 -15.53125 5.78125 -15.53125 C 5.957031 -15.507812 6.125 -15.5 6.28125 -15.5 C 6.4375 -15.5 6.59375 -15.5 6.75 -15.5 C 6.851562 -15.5 6.957031 -15.492188 7.0625 -15.484375 C 7.164062 -15.484375 7.269531 -15.484375 7.375 -15.484375 C 7.53125 -15.453125 7.679688 -15.457031 7.828125 -15.5 C 7.859375 -15.5 7.890625 -15.5 7.921875 -15.5 C 7.953125 -15.5 7.984375 -15.5 8.015625 -15.5 Z M 8.015625 -15.5 "/></g></g></g><g fill="#000000" fill-opacity="1"><g transform="translate(61.897978, 29.637235)"><g><path d="M 2.15625 -0.046875 C 2.132812 -0.148438 2.125 -0.253906 2.125 -0.359375 C 2.125 -0.460938 2.117188 -0.5625 2.109375 -0.65625 C 2.085938 -0.851562 2.078125 -1.050781 2.078125 -1.25 C 2.078125 -1.445312 2.078125 -1.644531 2.078125 -1.84375 C 2.109375 -2.269531 2.117188 -2.6875 2.109375 -3.09375 C 2.109375 -3.507812 2.109375 -3.921875 2.109375 -4.328125 C 2.109375 -4.359375 2.109375 -4.378906 2.109375 -4.390625 C 2.109375 -4.410156 2.109375 -4.429688 2.109375 -4.453125 C 2.140625 -4.453125 2.160156 -4.453125 2.171875 -4.453125 C 2.191406 -4.453125 2.207031 -4.453125 2.21875 -4.453125 C 2.34375 -4.453125 2.46875 -4.453125 2.59375 -4.453125 C 2.71875 -4.453125 2.835938 -4.441406 2.953125 -4.421875 C 3.328125 -4.410156 3.703125 -4.40625 4.078125 -4.40625 C 4.460938 -4.414062 4.84375 -4.421875 5.21875 -4.421875 C 5.613281 -4.410156 6 -4.40625 6.375 -4.40625 C 6.75 -4.414062 7.128906 -4.414062 7.515625 -4.40625 C 7.921875 -4.382812 8.332031 -4.378906 8.75 -4.390625 C 9.164062 -4.398438 9.578125 -4.394531 9.984375 -4.375 C 10.109375 -4.375 10.226562 -4.375 10.34375 -4.375 C 10.457031 -4.375 10.570312 -4.367188 10.6875 -4.359375 C 10.8125 -4.335938 10.925781 -4.328125 11.03125 -4.328125 C 11.144531 -4.328125 11.253906 -4.328125 11.359375 -4.328125 C 11.578125 -4.328125 11.796875 -4.320312 12.015625 -4.3125 C 12.234375 -4.3125 12.453125 -4.3125 12.671875 -4.3125 C 12.835938 -4.3125 13.003906 -4.3125 13.171875 -4.3125 C 13.347656 -4.3125 13.523438 -4.3125 13.703125 -4.3125 C 13.710938 -4.3125 13.722656 -4.304688 13.734375 -4.296875 C 13.753906 -4.285156 13.773438 -4.28125 13.796875 -4.28125 C 13.898438 -4.269531 14.007812 -4.269531 14.125 -4.28125 C 14.164062 -4.300781 14.210938 -4.3125 14.265625 -4.3125 C 14.328125 -4.3125 14.378906 -4.3125 14.421875 -4.3125 C 14.597656 -4.289062 14.78125 -4.273438 14.96875 -4.265625 C 15.15625 -4.265625 15.34375 -4.265625 15.53125 -4.265625 C 15.59375 -4.265625 15.65625 -4.257812 15.71875 -4.25 C 15.78125 -4.238281 15.84375 -4.234375 15.90625 -4.234375 C 16.09375 -4.234375 16.28125 -4.257812 16.46875 -4.3125 C 16.53125 -4.3125 16.59375 -4.3125 16.65625 -4.3125 C 16.71875 -4.3125 16.78125 -4.316406 16.84375 -4.328125 C 16.96875 -4.347656 17.097656 -4.363281 17.234375 -4.375 C 17.378906 -4.394531 17.503906 -4.425781 17.609375 -4.46875 C 17.890625 -4.59375 18.0625 -4.78125 18.125 -5.03125 C 18.144531 -5.0625 18.15625 -5.09375 18.15625 -5.125 C 18.164062 -5.15625 18.171875 -5.1875 18.171875 -5.21875 C 18.171875 -5.269531 18.171875 -5.316406 18.171875 -5.359375 C 18.171875 -5.410156 18.171875 -5.457031 18.171875 -5.5 C 18.128906 -5.625 18.0625 -5.707031 17.96875 -5.75 C 17.875 -5.800781 17.769531 -5.835938 17.65625 -5.859375 C 17.5625 -5.890625 17.46875 -5.90625 17.375 -5.90625 C 17.28125 -5.914062 17.179688 -5.929688 17.078125 -5.953125 C 16.921875 -5.960938 16.757812 -5.96875 16.59375 -5.96875 C 16.425781 -5.96875 16.257812 -5.976562 16.09375 -6 C 15.96875 -6.007812 15.832031 -6.007812 15.6875 -6 C 15.550781 -6 15.421875 -6.003906 15.296875 -6.015625 C 15.015625 -6.046875 14.734375 -6.054688 14.453125 -6.046875 C 14.171875 -6.046875 13.890625 -6.046875 13.609375 -6.046875 C 13.078125 -6.046875 12.546875 -6.046875 12.015625 -6.046875 C 11.484375 -6.046875 10.953125 -6.046875 10.421875 -6.046875 C 10.222656 -6.046875 10.015625 -6.046875 9.796875 -6.046875 C 9.585938 -6.054688 9.375 -6.070312 9.15625 -6.09375 C 8.90625 -6.101562 8.644531 -6.101562 8.375 -6.09375 C 8.113281 -6.09375 7.851562 -6.097656 7.59375 -6.109375 C 7.476562 -6.109375 7.363281 -6.109375 7.25 -6.109375 C 7.144531 -6.109375 7.039062 -6.117188 6.9375 -6.140625 C 6.914062 -6.140625 6.894531 -6.140625 6.875 -6.140625 C 6.851562 -6.148438 6.828125 -6.15625 6.796875 -6.15625 C 6.734375 -6.175781 6.671875 -6.1875 6.609375 -6.1875 C 6.546875 -6.1875 6.472656 -6.1875 6.390625 -6.1875 C 6.316406 -6.195312 6.234375 -6.207031 6.140625 -6.21875 C 6.054688 -6.226562 5.976562 -6.238281 5.90625 -6.25 C 5.84375 -6.269531 5.78125 -6.28125 5.71875 -6.28125 C 5.65625 -6.289062 5.59375 -6.304688 5.53125 -6.328125 C 5.382812 -6.335938 5.242188 -6.363281 5.109375 -6.40625 C 4.984375 -6.445312 4.847656 -6.488281 4.703125 -6.53125 C 4.546875 -6.582031 4.390625 -6.644531 4.234375 -6.71875 C 4.078125 -6.800781 3.921875 -6.894531 3.765625 -7 C 3.753906 -7.019531 3.738281 -7.03125 3.71875 -7.03125 C 3.707031 -7.039062 3.691406 -7.054688 3.671875 -7.078125 C 3.535156 -7.148438 3.40625 -7.234375 3.28125 -7.328125 C 3.164062 -7.421875 3.054688 -7.515625 2.953125 -7.609375 C 2.890625 -7.671875 2.828125 -7.734375 2.765625 -7.796875 C 2.703125 -7.859375 2.640625 -7.921875 2.578125 -7.984375 C 2.484375 -8.078125 2.40625 -8.179688 2.34375 -8.296875 C 2.28125 -8.421875 2.222656 -8.535156 2.171875 -8.640625 C 2.097656 -8.859375 2.023438 -9.070312 1.953125 -9.28125 C 1.878906 -9.5 1.820312 -9.71875 1.78125 -9.9375 C 1.757812 -10.007812 1.742188 -10.082031 1.734375 -10.15625 C 1.734375 -10.238281 1.71875 -10.3125 1.6875 -10.375 C 1.6875 -10.457031 1.679688 -10.535156 1.671875 -10.609375 C 1.660156 -10.691406 1.648438 -10.765625 1.640625 -10.828125 C 1.640625 -10.898438 1.640625 -10.984375 1.640625 -11.078125 C 1.648438 -11.171875 1.65625 -11.265625 1.65625 -11.359375 C 1.65625 -11.378906 1.65625 -11.394531 1.65625 -11.40625 C 1.65625 -11.425781 1.65625 -11.441406 1.65625 -11.453125 C 1.65625 -11.734375 1.6875 -12 1.75 -12.25 C 1.8125 -12.507812 1.890625 -12.765625 1.984375 -13.015625 C 2.109375 -13.347656 2.25 -13.644531 2.40625 -13.90625 C 2.46875 -14 2.53125 -14.082031 2.59375 -14.15625 C 2.65625 -14.238281 2.71875 -14.320312 2.78125 -14.40625 C 2.894531 -14.53125 3.007812 -14.640625 3.125 -14.734375 C 3.238281 -14.835938 3.359375 -14.945312 3.484375 -15.0625 C 3.566406 -15.101562 3.640625 -15.144531 3.703125 -15.1875 C 3.773438 -15.226562 3.84375 -15.265625 3.90625 -15.296875 C 3.988281 -15.335938 4.066406 -15.378906 4.140625 -15.421875 C 4.222656 -15.460938 4.296875 -15.5 4.359375 -15.53125 C 4.546875 -15.632812 4.742188 -15.722656 4.953125 -15.796875 C 5.160156 -15.867188 5.367188 -15.925781 5.578125 -15.96875 C 5.703125 -16 5.820312 -16.03125 5.9375 -16.0625 C 6.050781 -16.09375 6.164062 -16.117188 6.28125 -16.140625 C 6.351562 -16.148438 6.429688 -16.160156 6.515625 -16.171875 C 6.609375 -16.179688 6.691406 -16.191406 6.765625 -16.203125 C 6.859375 -16.222656 6.953125 -16.234375 7.046875 -16.234375 C 7.140625 -16.242188 7.234375 -16.25 7.328125 -16.25 C 7.453125 -16.25 7.566406 -16.253906 7.671875 -16.265625 C 7.785156 -16.273438 7.898438 -16.265625 8.015625 -16.234375 C 8.046875 -16.234375 8.078125 -16.234375 8.109375 -16.234375 C 8.140625 -16.234375 8.171875 -16.234375 8.203125 -16.234375 C 8.609375 -16.210938 9.015625 -16.203125 9.421875 -16.203125 C 9.828125 -16.203125 10.234375 -16.203125 10.640625 -16.203125 C 10.796875 -16.191406 10.953125 -16.1875 11.109375 -16.1875 C 11.273438 -16.195312 11.4375 -16.195312 11.59375 -16.1875 C 11.851562 -16.164062 12.113281 -16.15625 12.375 -16.15625 C 12.644531 -16.15625 12.921875 -16.15625 13.203125 -16.15625 C 13.285156 -16.144531 13.359375 -16.144531 13.421875 -16.15625 C 13.492188 -16.175781 13.570312 -16.1875 13.65625 -16.1875 C 13.789062 -16.1875 13.925781 -16.1875 14.0625 -16.1875 C 14.207031 -16.1875 14.351562 -16.1875 14.5 -16.1875 C 14.632812 -16.164062 14.769531 -16.160156 14.90625 -16.171875 C 15.039062 -16.179688 15.160156 -16.191406 15.265625 -16.203125 C 15.328125 -16.203125 15.382812 -16.195312 15.4375 -16.1875 C 15.5 -16.1875 15.5625 -16.191406 15.625 -16.203125 C 15.789062 -16.234375 15.957031 -16.242188 16.125 -16.234375 C 16.300781 -16.234375 16.46875 -16.234375 16.625 -16.234375 C 16.738281 -16.234375 16.84375 -16.226562 16.9375 -16.21875 C 17.039062 -16.207031 17.148438 -16.203125 17.265625 -16.203125 C 17.578125 -16.234375 17.878906 -16.242188 18.171875 -16.234375 C 18.472656 -16.234375 18.769531 -16.234375 19.0625 -16.234375 C 19.175781 -16.234375 19.28125 -16.238281 19.375 -16.25 C 19.46875 -16.269531 19.566406 -16.28125 19.671875 -16.28125 C 19.703125 -16.28125 19.71875 -16.28125 19.71875 -16.28125 C 19.71875 -16.28125 19.726562 -16.28125 19.75 -16.28125 C 19.78125 -16.28125 19.8125 -16.28125 19.84375 -16.28125 C 19.875 -16.28125 19.894531 -16.28125 19.90625 -16.28125 C 20.144531 -16.28125 20.378906 -16.28125 20.609375 -16.28125 C 20.847656 -16.28125 21.082031 -16.269531 21.3125 -16.25 C 21.6875 -16.238281 22.0625 -16.234375 22.4375 -16.234375 C 22.8125 -16.242188 23.1875 -16.242188 23.5625 -16.234375 C 23.6875 -16.234375 23.8125 -16.234375 23.9375 -16.234375 C 24.070312 -16.242188 24.203125 -16.25 24.328125 -16.25 C 24.359375 -16.25 24.390625 -16.25 24.421875 -16.25 C 24.453125 -16.25 24.484375 -16.25 24.515625 -16.25 C 24.546875 -15.894531 24.550781 -15.539062 24.53125 -15.1875 C 24.507812 -14.832031 24.5 -14.476562 24.5 -14.125 C 24.507812 -13.757812 24.515625 -13.398438 24.515625 -13.046875 C 24.515625 -12.703125 24.515625 -12.347656 24.515625 -11.984375 C 24.503906 -11.972656 24.472656 -11.96875 24.421875 -11.96875 C 24.347656 -11.96875 24.265625 -11.96875 24.171875 -11.96875 C 24.078125 -11.976562 23.988281 -11.976562 23.90625 -11.96875 C 23.738281 -11.945312 23.5625 -11.941406 23.375 -11.953125 C 23.1875 -11.960938 23 -11.957031 22.8125 -11.9375 C 22.613281 -11.925781 22.40625 -11.921875 22.1875 -11.921875 C 21.96875 -11.921875 21.75 -11.921875 21.53125 -11.921875 C 21.132812 -11.921875 20.738281 -11.921875 20.34375 -11.921875 C 19.957031 -11.921875 19.5625 -11.921875 19.15625 -11.921875 C 19.019531 -11.921875 18.878906 -11.925781 18.734375 -11.9375 C 18.597656 -11.957031 18.457031 -11.96875 18.3125 -11.96875 C 18.207031 -11.96875 18.09375 -11.96875 17.96875 -11.96875 C 17.84375 -11.96875 17.71875 -11.957031 17.59375 -11.9375 C 17.570312 -11.9375 17.550781 -11.9375 17.53125 -11.9375 C 17.507812 -11.9375 17.484375 -11.9375 17.453125 -11.9375 C 17.140625 -11.9375 16.820312 -11.9375 16.5 -11.9375 C 16.175781 -11.9375 15.859375 -11.9375 15.546875 -11.9375 C 15.359375 -11.96875 15.164062 -11.976562 14.96875 -11.96875 C 14.78125 -11.96875 14.597656 -11.972656 14.421875 -11.984375 C 14.222656 -12.003906 14.015625 -12.007812 13.796875 -12 C 13.585938 -11.988281 13.375 -11.992188 13.15625 -12.015625 C 13.050781 -12.015625 12.9375 -12.015625 12.8125 -12.015625 C 12.695312 -12.023438 12.578125 -12.03125 12.453125 -12.03125 C 12.347656 -12.050781 12.242188 -12.0625 12.140625 -12.0625 C 12.035156 -12.070312 11.929688 -12.0625 11.828125 -12.03125 C 11.796875 -12 11.765625 -12 11.734375 -12.03125 C 11.671875 -12.03125 11.609375 -12.019531 11.546875 -12 C 11.484375 -11.988281 11.421875 -11.984375 11.359375 -11.984375 C 11.253906 -11.972656 11.148438 -11.957031 11.046875 -11.9375 C 10.941406 -11.925781 10.835938 -11.921875 10.734375 -11.921875 C 10.640625 -11.898438 10.546875 -11.894531 10.453125 -11.90625 C 10.359375 -11.914062 10.265625 -11.921875 10.171875 -11.921875 C 9.984375 -11.921875 9.8125 -11.859375 9.65625 -11.734375 C 9.507812 -11.609375 9.414062 -11.460938 9.375 -11.296875 C 9.34375 -11.203125 9.34375 -11.09375 9.375 -10.96875 C 9.40625 -10.851562 9.457031 -10.769531 9.53125 -10.71875 C 9.613281 -10.664062 9.703125 -10.625 9.796875 -10.59375 C 9.828125 -10.570312 9.863281 -10.5625 9.90625 -10.5625 C 9.957031 -10.5625 10 -10.5625 10.03125 -10.5625 C 10.257812 -10.5625 10.492188 -10.5625 10.734375 -10.5625 C 10.984375 -10.5625 11.234375 -10.5625 11.484375 -10.5625 C 11.648438 -10.550781 11.828125 -10.546875 12.015625 -10.546875 C 12.203125 -10.554688 12.378906 -10.546875 12.546875 -10.515625 C 12.816406 -10.503906 13.09375 -10.492188 13.375 -10.484375 C 13.65625 -10.472656 13.9375 -10.476562 14.21875 -10.5 C 14.382812 -10.5 14.546875 -10.5 14.703125 -10.5 C 14.859375 -10.507812 15.015625 -10.507812 15.171875 -10.5 C 15.441406 -10.5 15.710938 -10.5 15.984375 -10.5 C 16.253906 -10.5 16.523438 -10.488281 16.796875 -10.46875 C 16.921875 -10.46875 17.039062 -10.460938 17.15625 -10.453125 C 17.269531 -10.453125 17.382812 -10.453125 17.5 -10.453125 C 17.59375 -10.453125 17.6875 -10.441406 17.78125 -10.421875 C 17.875 -10.410156 17.96875 -10.40625 18.0625 -10.40625 C 18.070312 -10.40625 18.082031 -10.40625 18.09375 -10.40625 C 18.101562 -10.40625 18.113281 -10.40625 18.125 -10.40625 C 18.34375 -10.40625 18.554688 -10.378906 18.765625 -10.328125 C 18.796875 -10.328125 18.820312 -10.328125 18.84375 -10.328125 C 18.863281 -10.328125 18.882812 -10.328125 18.90625 -10.328125 C 19.164062 -10.328125 19.425781 -10.328125 19.6875 -10.328125 C 19.957031 -10.328125 20.226562 -10.328125 20.5 -10.328125 C 20.625 -10.328125 20.734375 -10.320312 20.828125 -10.3125 C 20.929688 -10.3125 21.039062 -10.300781 21.15625 -10.28125 C 21.257812 -10.269531 21.363281 -10.253906 21.46875 -10.234375 C 21.570312 -10.222656 21.675781 -10.203125 21.78125 -10.171875 C 21.988281 -10.117188 22.1875 -10.0625 22.375 -10 C 22.570312 -9.9375 22.765625 -9.867188 22.953125 -9.796875 C 23.066406 -9.765625 23.171875 -9.71875 23.265625 -9.65625 C 23.367188 -9.601562 23.46875 -9.546875 23.5625 -9.484375 C 23.6875 -9.410156 23.8125 -9.328125 23.9375 -9.234375 C 24.0625 -9.148438 24.175781 -9.070312 24.28125 -9 C 24.3125 -8.976562 24.347656 -8.953125 24.390625 -8.921875 C 24.429688 -8.890625 24.457031 -8.859375 24.46875 -8.828125 C 24.582031 -8.722656 24.691406 -8.609375 24.796875 -8.484375 C 24.910156 -8.367188 25.003906 -8.25 25.078125 -8.125 C 25.296875 -7.832031 25.453125 -7.53125 25.546875 -7.21875 C 25.578125 -7.125 25.601562 -7.03125 25.625 -6.9375 C 25.65625 -6.851562 25.675781 -6.765625 25.6875 -6.671875 C 25.71875 -6.578125 25.738281 -6.476562 25.75 -6.375 C 25.769531 -6.28125 25.789062 -6.1875 25.8125 -6.09375 C 25.851562 -5.851562 25.867188 -5.613281 25.859375 -5.375 C 25.859375 -5.144531 25.859375 -4.914062 25.859375 -4.6875 C 25.859375 -4.632812 25.859375 -4.582031 25.859375 -4.53125 C 25.859375 -4.488281 25.847656 -4.445312 25.828125 -4.40625 C 25.816406 -4.289062 25.800781 -4.1875 25.78125 -4.09375 C 25.769531 -4 25.75 -3.898438 25.71875 -3.796875 C 25.695312 -3.679688 25.671875 -3.566406 25.640625 -3.453125 C 25.609375 -3.335938 25.570312 -3.21875 25.53125 -3.09375 C 25.445312 -2.90625 25.347656 -2.71875 25.234375 -2.53125 C 25.128906 -2.34375 25.007812 -2.160156 24.875 -1.984375 C 24.6875 -1.753906 24.472656 -1.546875 24.234375 -1.359375 C 24.191406 -1.304688 24.144531 -1.253906 24.09375 -1.203125 C 24.050781 -1.160156 24.003906 -1.125 23.953125 -1.09375 C 23.828125 -0.957031 23.679688 -0.84375 23.515625 -0.75 C 23.359375 -0.65625 23.195312 -0.566406 23.03125 -0.484375 C 22.875 -0.421875 22.71875 -0.363281 22.5625 -0.3125 C 22.40625 -0.257812 22.238281 -0.203125 22.0625 -0.140625 C 21.894531 -0.078125 21.703125 -0.046875 21.484375 -0.046875 C 21.171875 -0.046875 20.859375 -0.046875 20.546875 -0.046875 C 20.242188 -0.046875 19.9375 -0.046875 19.625 -0.046875 C 19.46875 -0.046875 19.316406 -0.046875 19.171875 -0.046875 C 19.023438 -0.0546875 18.878906 -0.0625 18.734375 -0.0625 C 18.566406 -0.0820312 18.390625 -0.09375 18.203125 -0.09375 C 18.023438 -0.09375 17.851562 -0.09375 17.6875 -0.09375 C 17.34375 -0.09375 17 -0.09375 16.65625 -0.09375 C 16.320312 -0.101562 15.984375 -0.101562 15.640625 -0.09375 C 15.078125 -0.0703125 14.515625 -0.0625 13.953125 -0.0625 C 13.390625 -0.0625 12.820312 -0.0625 12.25 -0.0625 C 12.070312 -0.0507812 11.894531 -0.046875 11.71875 -0.046875 C 11.539062 -0.046875 11.367188 -0.046875 11.203125 -0.046875 C 11.085938 -0.0234375 10.988281 -0.0078125 10.90625 0 C 10.820312 0 10.722656 0.00390625 10.609375 0.015625 C 10.546875 0.015625 10.488281 0.015625 10.4375 0.015625 C 10.382812 0.015625 10.328125 0.0234375 10.265625 0.046875 C 10.054688 0.0546875 9.847656 0.0625 9.640625 0.0625 C 9.429688 0.0625 9.21875 0.0625 9 0.0625 C 8.882812 0.0625 8.769531 0.0546875 8.65625 0.046875 C 8.539062 0.046875 8.421875 0.0351562 8.296875 0.015625 C 8.234375 0.00390625 8.175781 0 8.125 0 C 8.082031 0 8.03125 -0.00390625 7.96875 -0.015625 C 7.84375 -0.015625 7.71875 -0.015625 7.59375 -0.015625 C 7.46875 -0.015625 7.34375 -0.0234375 7.21875 -0.046875 C 7.039062 -0.078125 6.863281 -0.0859375 6.6875 -0.078125 C 6.519531 -0.0664062 6.351562 -0.0625 6.1875 -0.0625 C 5.96875 -0.0625 5.742188 -0.0507812 5.515625 -0.03125 C 5.285156 -0.0195312 5.0625 -0.0234375 4.84375 -0.046875 C 4.6875 -0.046875 4.523438 -0.046875 4.359375 -0.046875 C 4.203125 -0.0546875 4.035156 -0.0625 3.859375 -0.0625 C 3.609375 -0.0507812 3.347656 -0.046875 3.078125 -0.046875 C 2.816406 -0.046875 2.554688 -0.046875 2.296875 -0.046875 C 2.273438 -0.046875 2.253906 -0.046875 2.234375 -0.046875 C 2.210938 -0.046875 2.1875 -0.046875 2.15625 -0.046875 Z M 2.15625 -0.046875 "/></g></g></g></g></g></svg>