<svg xmlns="http://www.w3.org/2000/svg" xmlns:xlink="http://www.w3.org/1999/xlink" width="500" zoomAndPan="magnify" viewBox="0 0 375 374.999991" height="500" preserveAspectRatio="xMidYMid meet" version="1.0"><defs><clipPath id="306cfe5838"><path d="M 320 165 L 362.90625 165 L 362.90625 209 L 320 209 Z M 320 165 " clip-rule="nonzero"/></clipPath><clipPath id="c46ff44751"><path d="M 10.40625 165 L 54 165 L 54 209 L 10.40625 209 Z M 10.40625 165 " clip-rule="nonzero"/></clipPath><clipPath id="37f072c201"><path d="M 165 10.40625 L 209 10.40625 L 209 54 L 165 54 Z M 165 10.40625 " clip-rule="nonzero"/></clipPath><clipPath id="4d93daeb93"><path d="M 165 320 L 209 320 L 209 362.90625 L 165 362.90625 Z M 165 320 " clip-rule="nonzero"/></clipPath></defs><path fill="#000000" d="M 235.152344 233.277344 C 237.007812 233.277344 238.511719 231.851562 238.511719 230.089844 C 238.511719 228.328125 237.007812 226.902344 235.152344 226.902344 C 237.007812 226.902344 238.511719 225.476562 238.511719 223.714844 C 238.511719 221.953125 237.007812 220.527344 235.152344 220.527344 C 237.027344 220.527344 238.539062 219.070312 238.511719 217.285156 C 238.484375 215.558594 236.914062 214.148438 235.09375 214.148438 L 224.066406 214.148438 L 227.753906 208.039062 C 228.746094 206.390625 229.269531 204.519531 229.269531 202.613281 C 229.269531 200.179688 227.230469 198.210938 224.71875 198.210938 L 222.855469 198.210938 C 222.21875 198.210938 221.707031 198.695312 221.707031 199.296875 C 221.707031 202.234375 220.457031 205.042969 218.253906 207.0625 L 207.785156 216.652344 C 206.476562 217.855469 205.03125 218.132812 203.222656 218.132812 L 201.742188 218.132812 C 201.167969 218.132812 200.703125 218.574219 200.703125 219.121094 L 200.703125 238.664062 C 200.703125 239.210938 201.167969 239.652344 201.742188 239.652344 L 235.09375 239.652344 C 236.910156 239.652344 238.484375 238.242188 238.511719 236.515625 C 238.539062 234.730469 237.027344 233.277344 235.152344 233.277344 Z M 235.152344 233.277344 " fill-opacity="1" fill-rule="nonzero"/><path fill="#000000" d="M 197.09375 215.746094 L 188.292969 215.746094 C 187.707031 215.746094 187.230469 216.195312 187.230469 216.75 L 187.230469 241.835938 C 187.230469 242.390625 187.707031 242.839844 188.292969 242.839844 L 197.09375 242.839844 C 197.679688 242.839844 198.152344 242.390625 198.152344 241.835938 L 198.152344 216.75 C 198.152344 216.195312 197.679688 215.746094 197.09375 215.746094 Z M 193.535156 239.652344 C 192.375 239.652344 191.433594 238.761719 191.433594 237.660156 C 191.433594 236.5625 192.375 235.667969 193.535156 235.667969 C 194.695312 235.667969 195.632812 236.5625 195.632812 237.660156 C 195.632812 238.761719 194.691406 239.652344 193.535156 239.652344 Z M 193.535156 239.652344 " fill-opacity="1" fill-rule="nonzero"/><path fill="#000000" d="M 242.964844 254.125 C 246.898438 250.394531 249.984375 246.046875 252.148438 241.203125 C 254.390625 236.167969 255.527344 230.824219 255.527344 225.316406 C 255.527344 219.804688 254.390625 214.460938 252.148438 209.429688 C 249.984375 204.582031 246.898438 200.234375 242.964844 196.507812 C 239.046875 192.789062 234.488281 189.875 229.414062 187.835938 C 224.171875 185.734375 218.605469 184.667969 212.871094 184.667969 C 207.136719 184.667969 201.574219 185.734375 196.328125 187.835938 C 191.253906 189.871094 186.695312 192.789062 182.777344 196.507812 C 178.847656 200.234375 175.757812 204.582031 173.597656 209.429688 C 171.355469 214.460938 170.214844 219.804688 170.214844 225.316406 C 170.214844 230.824219 171.355469 236.167969 173.597656 241.203125 C 175.757812 246.046875 178.847656 250.394531 182.777344 254.125 C 186.695312 257.839844 191.257812 260.753906 196.328125 262.792969 C 201.574219 264.894531 207.136719 265.960938 212.871094 265.960938 C 218.605469 265.960938 224.171875 264.894531 229.414062 262.792969 C 234.488281 260.753906 239.046875 257.839844 242.964844 254.125 Z M 212.871094 258.710938 C 208.066406 258.710938 203.410156 257.816406 199.03125 256.0625 C 194.808594 254.367188 191.019531 251.945312 187.769531 248.863281 C 181.125 242.5625 177.46875 234.199219 177.46875 225.316406 C 177.46875 216.429688 181.125 208.070312 187.769531 201.769531 C 191.019531 198.683594 194.808594 196.261719 199.03125 194.570312 C 203.410156 192.8125 208.066406 191.921875 212.871094 191.921875 C 217.675781 191.921875 222.332031 192.8125 226.714844 194.570312 C 230.933594 196.261719 234.722656 198.683594 237.976562 201.769531 C 244.617188 208.070312 248.277344 216.429688 248.277344 225.316406 C 248.277344 234.199219 244.617188 242.5625 237.976562 248.863281 C 234.722656 251.945312 230.933594 254.367188 226.714844 256.0625 C 222.332031 257.816406 217.675781 258.710938 212.871094 258.710938 Z M 212.871094 258.710938 " fill-opacity="1" fill-rule="nonzero"/><path fill="#000000" d="M 224.980469 293.101562 C 225.675781 294.066406 226.78125 294.613281 227.925781 294.613281 C 228.28125 294.613281 228.636719 294.558594 228.984375 294.453125 L 242.113281 290.445312 C 243.671875 289.96875 244.722656 288.507812 244.679688 286.878906 L 244.316406 273.246094 L 250.804688 268.796875 L 264.578125 273.484375 C 266.046875 273.984375 267.671875 273.492188 268.617188 272.261719 L 276.753906 261.699219 C 277.777344 260.371094 277.757812 258.515625 276.703125 257.210938 L 267.960938 246.378906 L 270.375 239.386719 L 284.335938 235.523438 C 285.90625 235.089844 286.992188 233.664062 286.996094 232.039062 L 287.03125 218.957031 C 287.035156 217.328125 285.957031 215.898438 284.390625 215.457031 L 270.449219 211.523438 L 268.074219 204.523438 L 276.875 193.734375 C 277.9375 192.433594 277.96875 190.578125 276.949219 189.242188 L 268.871094 178.640625 C 267.929688 177.40625 266.308594 176.90625 264.835938 177.398438 L 251.039062 182.019531 L 244.578125 177.539062 L 245.011719 163.910156 C 245.0625 162.277344 244.019531 160.816406 242.464844 160.332031 L 229.359375 156.257812 C 227.875 155.796875 226.261719 156.332031 225.347656 157.589844 L 217.101562 168.945312 L 208.949219 168.925781 L 200.761719 157.527344 C 199.855469 156.265625 198.246094 155.722656 196.757812 156.175781 L 183.632812 160.1875 C 182.070312 160.664062 181.023438 162.121094 181.066406 163.75 L 181.425781 177.382812 L 174.9375 181.832031 L 161.167969 177.144531 C 159.695312 176.644531 158.074219 177.136719 157.125 178.367188 L 148.992188 188.929688 C 147.96875 190.257812 147.988281 192.117188 149.042969 193.421875 L 157.785156 204.253906 L 155.371094 211.242188 L 141.40625 215.105469 C 139.839844 215.542969 138.753906 216.964844 138.75 218.59375 L 138.714844 231.675781 C 138.707031 233.300781 139.789062 234.730469 141.355469 235.171875 L 155.292969 239.105469 L 157.671875 246.105469 L 148.867188 256.894531 C 147.808594 258.195312 147.777344 260.050781 148.792969 261.386719 L 156.871094 271.988281 C 157.8125 273.222656 159.4375 273.722656 160.910156 273.230469 L 174.707031 268.613281 L 181.167969 273.089844 L 180.734375 286.71875 C 180.683594 288.351562 181.722656 289.8125 183.28125 290.296875 L 196.386719 294.371094 C 197.871094 294.835938 199.484375 294.296875 200.398438 293.039062 L 208.644531 281.683594 L 216.796875 281.703125 Z M 206.808594 274.429688 C 206.804688 274.429688 206.800781 274.429688 206.800781 274.429688 C 205.640625 274.429688 204.546875 274.984375 203.867188 275.925781 L 196.054688 286.675781 L 188.070312 284.191406 L 188.480469 271.347656 C 188.519531 270.117188 187.929688 268.953125 186.921875 268.253906 L 177.34375 261.617188 C 176.402344 260.964844 175.210938 260.796875 174.125 261.160156 L 161.070312 265.53125 L 156.296875 259.265625 L 164.5625 249.132812 C 165.351562 248.167969 165.585938 246.859375 165.183594 245.675781 L 161.546875 234.96875 C 161.164062 233.839844 160.25 232.96875 159.101562 232.644531 L 145.972656 228.941406 L 145.992188 221.363281 L 159.140625 217.722656 C 160.292969 217.40625 161.210938 216.542969 161.601562 215.414062 L 165.296875 204.722656 C 165.703125 203.542969 165.472656 202.234375 164.691406 201.261719 L 156.480469 191.089844 L 161.289062 184.847656 L 174.320312 189.28125 C 175.402344 189.648438 176.597656 189.488281 177.539062 188.839844 L 187.152344 182.25 C 188.167969 181.554688 188.761719 180.394531 188.726562 179.164062 L 188.386719 166.316406 L 196.390625 163.871094 L 204.140625 174.660156 C 204.820312 175.605469 205.910156 176.167969 207.074219 176.167969 L 218.9375 176.199219 C 218.9375 176.199219 218.941406 176.199219 218.945312 176.199219 C 220.105469 176.199219 221.195312 175.644531 221.878906 174.703125 L 229.6875 163.953125 L 237.675781 166.433594 L 237.265625 179.28125 C 237.226562 180.511719 237.8125 181.675781 238.824219 182.375 L 248.402344 189.011719 C 249.339844 189.664062 250.53125 189.832031 251.617188 189.46875 L 264.675781 185.097656 L 269.445312 191.363281 L 261.183594 201.492188 C 260.390625 202.460938 260.15625 203.769531 260.558594 204.953125 L 264.195312 215.660156 C 264.578125 216.789062 265.496094 217.660156 266.644531 217.984375 L 279.769531 221.6875 L 279.75 229.265625 L 266.601562 232.902344 C 265.453125 233.222656 264.53125 234.085938 264.140625 235.214844 L 260.449219 245.902344 C 260.039062 247.085938 260.269531 248.394531 261.054688 249.367188 L 269.261719 259.535156 L 264.457031 265.777344 L 251.421875 261.34375 C 250.339844 260.976562 249.148438 261.140625 248.203125 261.785156 L 238.589844 268.375 C 237.574219 269.070312 236.980469 270.234375 237.015625 271.460938 L 237.355469 284.3125 L 229.351562 286.757812 L 221.605469 275.96875 C 220.925781 275.023438 219.832031 274.460938 218.667969 274.457031 Z M 206.808594 274.429688 " fill-opacity="1" fill-rule="nonzero"/><path fill="#000000" d="M 147.902344 105.085938 C 145.476562 106.953125 143.492188 109.234375 142.003906 111.863281 C 139.105469 116.980469 138.40625 122.890625 140.042969 128.5 C 141.722656 134.257812 145.644531 139.039062 151.089844 141.96875 C 154.632812 143.871094 158.542969 144.839844 162.5 144.839844 C 164.574219 144.839844 166.660156 144.574219 168.710938 144.039062 C 171.824219 143.21875 174.667969 141.832031 177.164062 139.910156 C 179.589844 138.042969 181.574219 135.765625 183.0625 133.136719 C 185.964844 128.019531 186.660156 122.109375 185.023438 116.5 C 183.34375 110.742188 179.421875 105.957031 173.976562 103.03125 C 168.582031 100.128906 162.324219 99.394531 156.355469 100.960938 C 153.242188 101.777344 150.398438 103.164062 147.902344 105.085938 Z M 162.546875 107.414062 C 169.617188 107.414062 176.105469 111.816406 178.0625 118.527344 C 179.144531 122.242188 178.679688 126.160156 176.753906 129.5625 C 174.664062 133.25 171.15625 135.898438 166.871094 137.023438 C 165.417969 137.402344 163.957031 137.585938 162.523438 137.585938 C 155.449219 137.585938 148.960938 133.179688 147.007812 126.46875 C 145.921875 122.753906 146.386719 118.835938 148.3125 115.4375 C 150.402344 111.75 153.910156 109.101562 158.195312 107.976562 C 159.648438 107.59375 161.109375 107.414062 162.546875 107.414062 Z M 162.546875 107.414062 " fill-opacity="1" fill-rule="nonzero"/><path fill="#000000" d="M 155.957031 77.773438 L 147.6875 79.84375 C 146.152344 80.226562 145.042969 81.5625 144.945312 83.140625 L 144.472656 90.933594 L 141.40625 92.785156 L 133.871094 89.710938 C 132.445312 89.128906 130.804688 89.511719 129.785156 90.667969 L 124.222656 96.957031 C 123.125 98.203125 123.011719 100.035156 123.945312 101.40625 L 128.285156 107.753906 L 126.984375 110.738281 L 118.851562 112.546875 C 117.308594 112.890625 116.167969 114.191406 116.027344 115.761719 L 115.300781 123.875 C 115.148438 125.535156 116.152344 127.082031 117.726562 127.625 L 125.296875 130.242188 L 126.015625 133.179688 L 120.507812 139.082031 C 119.378906 140.292969 119.210938 142.117188 120.105469 143.511719 L 124.492188 150.347656 C 125.351562 151.6875 126.984375 152.308594 128.515625 151.882812 L 136.53125 149.652344 L 139.027344 151.65625 L 138.117188 159.316406 C 137.921875 160.972656 138.878906 162.550781 140.441406 163.136719 L 148.261719 166.082031 C 149.707031 166.628906 151.332031 166.199219 152.320312 165.015625 L 157.578125 158.734375 L 161.125 158.929688 L 165.121094 165.578125 C 165.789062 166.6875 166.980469 167.335938 168.230469 167.335938 C 168.523438 167.335938 168.816406 167.300781 169.109375 167.226562 L 177.382812 165.160156 C 178.917969 164.777344 180.023438 163.441406 180.121094 161.863281 L 180.59375 154.070312 L 183.660156 152.214844 L 191.195312 155.292969 C 192.621094 155.875 194.261719 155.488281 195.28125 154.335938 L 200.84375 148.042969 C 201.941406 146.800781 202.058594 144.96875 201.121094 143.597656 L 196.78125 137.246094 L 198.085938 134.261719 L 206.214844 132.457031 C 207.757812 132.113281 208.898438 130.8125 209.039062 129.238281 L 209.765625 121.128906 C 209.914062 119.46875 208.914062 117.921875 207.339844 117.378906 L 199.765625 114.757812 L 199.050781 111.824219 L 204.558594 105.921875 C 205.691406 104.710938 205.855469 102.886719 204.960938 101.488281 L 200.574219 94.65625 C 199.714844 93.316406 198.085938 92.695312 196.550781 93.121094 L 188.535156 95.347656 L 186.039062 93.347656 L 186.949219 85.683594 C 187.144531 84.027344 186.1875 82.453125 184.625 81.863281 L 176.804688 78.917969 C 175.363281 78.375 173.734375 78.804688 172.746094 79.984375 L 167.488281 86.265625 L 163.945312 86.074219 L 159.945312 79.425781 C 159.121094 78.054688 157.503906 77.386719 155.957031 77.773438 Z M 168.90625 93.605469 C 170.046875 93.667969 171.152344 93.1875 171.882812 92.3125 L 176.65625 86.609375 L 179.414062 87.648438 L 178.601562 94.488281 C 178.453125 95.734375 178.957031 96.964844 179.933594 97.746094 L 185.453125 102.167969 C 186.363281 102.898438 187.570312 103.144531 188.691406 102.832031 L 195.917969 100.824219 L 197.335938 103.03125 L 192.410156 108.308594 C 191.578125 109.199219 191.25 110.457031 191.539062 111.644531 L 193.195312 118.402344 C 193.488281 119.597656 194.367188 120.5625 195.53125 120.964844 L 202.292969 123.304688 L 202.054688 125.949219 L 194.710938 127.582031 C 193.582031 127.832031 192.640625 128.609375 192.175781 129.671875 L 189.332031 136.183594 C 188.832031 137.328125 188.957031 138.648438 189.660156 139.679688 L 193.539062 145.355469 L 191.550781 147.601562 L 184.714844 144.808594 C 183.652344 144.375 182.449219 144.46875 181.46875 145.0625 L 175.214844 148.84375 C 174.191406 149.457031 173.542969 150.535156 173.46875 151.726562 L 173.042969 158.765625 L 169.953125 159.535156 L 166.34375 153.539062 C 165.726562 152.507812 164.636719 151.855469 163.433594 151.789062 L 156.15625 151.390625 C 156.09375 151.386719 156.027344 151.386719 155.960938 151.386719 C 154.890625 151.386719 153.871094 151.859375 153.179688 152.683594 L 148.410156 158.386719 L 145.652344 157.347656 L 146.464844 150.507812 C 146.609375 149.265625 146.105469 148.035156 145.128906 147.25 L 139.609375 142.828125 C 138.699219 142.097656 137.496094 141.851562 136.371094 142.164062 L 129.148438 144.171875 L 127.730469 141.964844 L 132.652344 136.6875 C 133.488281 135.796875 133.816406 134.539062 133.523438 133.351562 L 131.871094 126.59375 C 131.578125 125.398438 130.695312 124.433594 129.53125 124.03125 L 122.773438 121.695312 L 123.011719 119.046875 L 130.351562 117.414062 C 131.484375 117.164062 132.425781 116.386719 132.890625 115.328125 L 135.734375 108.816406 C 136.234375 107.671875 136.109375 106.347656 135.40625 105.320312 L 131.527344 99.644531 L 133.515625 97.394531 L 140.351562 100.1875 C 141.414062 100.621094 142.617188 100.527344 143.597656 99.933594 L 149.851562 96.15625 C 150.875 95.539062 151.523438 94.460938 151.597656 93.269531 L 152.023438 86.230469 L 155.113281 85.460938 L 158.722656 91.457031 C 159.339844 92.488281 160.429688 93.144531 161.632812 93.210938 Z M 168.90625 93.605469 " fill-opacity="1" fill-rule="nonzero"/><path fill="#000000" d="M 159.363281 133.882812 L 175.320312 118.746094 L 170.332031 113.484375 L 159.363281 123.886719 L 154.738281 119.496094 L 149.746094 124.757812 Z M 159.363281 133.882812 " fill-opacity="1" fill-rule="nonzero"/><g clip-path="url(#306cfe5838)"><path fill="#000000" d="M 356.640625 171.53125 C 352.601562 167.496094 347.230469 165.269531 341.519531 165.269531 C 335.808594 165.269531 330.441406 167.496094 326.402344 171.53125 C 322.363281 175.570312 320.140625 180.941406 320.140625 186.652344 C 320.140625 192.363281 322.363281 197.734375 326.402344 201.773438 C 330.441406 205.808594 335.808594 208.035156 341.519531 208.035156 C 347.230469 208.035156 352.601562 205.808594 356.640625 201.773438 C 360.679688 197.734375 362.902344 192.363281 362.902344 186.652344 C 362.902344 180.941406 360.679688 175.570312 356.640625 171.53125 Z M 341.519531 200.78125 C 333.730469 200.78125 327.390625 194.441406 327.390625 186.652344 C 327.390625 178.863281 333.730469 172.523438 341.519531 172.523438 C 349.3125 172.523438 355.648438 178.863281 355.648438 186.652344 C 355.648438 194.441406 349.3125 200.78125 341.519531 200.78125 Z M 341.519531 200.78125 " fill-opacity="1" fill-rule="nonzero"/></g><g clip-path="url(#c46ff44751)"><path fill="#000000" d="M 53.164062 186.652344 C 53.164062 180.941406 50.941406 175.570312 46.902344 171.53125 C 42.863281 167.496094 37.496094 165.269531 31.785156 165.269531 C 26.074219 165.269531 20.703125 167.496094 16.664062 171.53125 C 12.625 175.570312 10.402344 180.941406 10.402344 186.652344 C 10.402344 192.363281 12.625 197.734375 16.664062 201.773438 C 20.703125 205.808594 26.074219 208.035156 31.785156 208.035156 C 37.496094 208.035156 42.863281 205.808594 46.902344 201.773438 C 50.941406 197.734375 53.164062 192.363281 53.164062 186.652344 Z M 31.785156 200.78125 C 23.992188 200.78125 17.65625 194.441406 17.65625 186.652344 C 17.65625 178.863281 23.992188 172.523438 31.785156 172.523438 C 39.574219 172.523438 45.914062 178.863281 45.914062 186.652344 C 45.914062 194.441406 39.574219 200.78125 31.785156 200.78125 Z M 31.785156 200.78125 " fill-opacity="1" fill-rule="nonzero"/></g><path fill="#000000" d="M 296.160156 98.527344 C 301.871094 98.527344 307.242188 96.300781 311.28125 92.265625 C 315.320312 88.226562 317.542969 82.855469 317.542969 77.144531 C 317.542969 71.433594 315.320312 66.0625 311.28125 62.023438 C 307.242188 57.988281 301.871094 55.761719 296.160156 55.761719 C 290.449219 55.761719 285.082031 57.988281 281.042969 62.023438 C 277.003906 66.0625 274.78125 71.433594 274.78125 77.144531 C 274.78125 82.855469 277.003906 88.226562 281.042969 92.265625 C 285.078125 96.300781 290.449219 98.527344 296.160156 98.527344 Z M 286.167969 67.152344 C 288.925781 64.398438 292.542969 63.019531 296.160156 63.019531 C 299.777344 63.019531 303.398438 64.398438 306.152344 67.152344 C 311.660156 72.660156 311.660156 81.625 306.152344 87.132812 C 300.640625 92.644531 291.679688 92.644531 286.167969 87.132812 C 283.5 84.464844 282.03125 80.917969 282.03125 77.144531 C 282.03125 73.371094 283.5 69.820312 286.167969 67.152344 Z M 286.167969 67.152344 " fill-opacity="1" fill-rule="nonzero"/><path fill="#000000" d="M 77.144531 274.777344 C 71.433594 274.777344 66.0625 277.003906 62.023438 281.042969 C 57.984375 285.078125 55.761719 290.449219 55.761719 296.160156 C 55.761719 301.871094 57.984375 307.242188 62.023438 311.28125 C 66.0625 315.316406 71.433594 317.542969 77.144531 317.542969 C 82.855469 317.542969 88.222656 315.316406 92.261719 311.28125 C 96.300781 307.242188 98.523438 301.871094 98.523438 296.160156 C 98.523438 290.449219 96.300781 285.078125 92.261719 281.042969 C 88.222656 277.003906 82.855469 274.777344 77.144531 274.777344 Z M 87.136719 306.152344 C 81.625 311.660156 72.664062 311.660156 67.152344 306.152344 C 61.644531 300.644531 61.644531 291.679688 67.152344 286.167969 C 69.824219 283.5 73.371094 282.03125 77.144531 282.03125 C 80.917969 282.03125 84.46875 283.5 87.136719 286.167969 C 92.644531 291.679688 92.644531 300.644531 87.136719 306.152344 Z M 87.136719 306.152344 " fill-opacity="1" fill-rule="nonzero"/><g clip-path="url(#37f072c201)"><path fill="#000000" d="M 186.652344 53.164062 C 192.363281 53.164062 197.734375 50.941406 201.773438 46.902344 C 205.808594 42.863281 208.035156 37.496094 208.035156 31.785156 C 208.035156 26.074219 205.808594 20.703125 201.773438 16.664062 C 197.734375 12.625 192.363281 10.402344 186.652344 10.402344 C 180.941406 10.402344 175.570312 12.625 171.53125 16.664062 C 167.496094 20.703125 165.269531 26.074219 165.269531 31.785156 C 165.269531 37.496094 167.496094 42.863281 171.53125 46.902344 C 175.570312 50.941406 180.941406 53.164062 186.652344 53.164062 Z M 186.652344 17.65625 C 194.441406 17.65625 200.78125 23.992188 200.78125 31.785156 C 200.78125 39.574219 194.441406 45.914062 186.652344 45.914062 C 178.863281 45.914062 172.523438 39.574219 172.523438 31.785156 C 172.523438 23.992188 178.863281 17.65625 186.652344 17.65625 Z M 186.652344 17.65625 " fill-opacity="1" fill-rule="nonzero"/></g><g clip-path="url(#4d93daeb93)"><path fill="#000000" d="M 186.652344 320.140625 C 180.941406 320.140625 175.570312 322.363281 171.53125 326.402344 C 167.496094 330.441406 165.269531 335.808594 165.269531 341.519531 C 165.269531 347.230469 167.496094 352.601562 171.53125 356.640625 C 175.570312 360.679688 180.941406 362.902344 186.652344 362.902344 C 192.363281 362.902344 197.734375 360.679688 201.773438 356.640625 C 205.808594 352.601562 208.035156 347.230469 208.035156 341.519531 C 208.035156 335.808594 205.808594 330.441406 201.773438 326.402344 C 197.734375 322.363281 192.363281 320.140625 186.652344 320.140625 Z M 186.652344 355.648438 C 178.863281 355.648438 172.523438 349.3125 172.523438 341.519531 C 172.523438 333.730469 178.863281 327.390625 186.652344 327.390625 C 194.441406 327.390625 200.78125 333.730469 200.78125 341.519531 C 200.78125 349.3125 194.441406 355.648438 186.652344 355.648438 Z M 186.652344 355.648438 " fill-opacity="1" fill-rule="nonzero"/></g><path fill="#000000" d="M 77.144531 55.761719 C 71.433594 55.761719 66.0625 57.984375 62.023438 62.023438 C 57.988281 66.0625 55.761719 71.433594 55.761719 77.144531 C 55.761719 82.855469 57.984375 88.222656 62.023438 92.261719 C 66.0625 96.300781 71.433594 98.523438 77.144531 98.523438 C 82.855469 98.523438 88.222656 96.300781 92.261719 92.261719 C 96.300781 88.222656 98.523438 82.855469 98.523438 77.144531 C 98.523438 71.433594 96.300781 66.0625 92.261719 62.023438 C 88.222656 57.984375 82.855469 55.761719 77.144531 55.761719 Z M 87.136719 87.136719 C 84.378906 89.890625 80.761719 91.265625 77.144531 91.265625 C 73.527344 91.265625 69.90625 89.890625 67.152344 87.136719 C 64.484375 84.464844 63.015625 80.917969 63.015625 77.144531 C 63.015625 73.371094 64.484375 69.820312 67.152344 67.152344 C 69.824219 64.484375 73.371094 63.015625 77.144531 63.015625 C 80.917969 63.015625 84.46875 64.484375 87.136719 67.152344 C 92.644531 72.660156 92.644531 81.625 87.136719 87.136719 Z M 87.136719 87.136719 " fill-opacity="1" fill-rule="nonzero"/><path fill="#000000" d="M 296.160156 274.777344 C 290.449219 274.777344 285.082031 277.003906 281.042969 281.042969 C 277.003906 285.078125 274.78125 290.449219 274.78125 296.160156 C 274.78125 301.871094 277.003906 307.242188 281.042969 311.28125 C 285.078125 315.316406 290.449219 317.542969 296.160156 317.542969 C 301.871094 317.542969 307.242188 315.316406 311.28125 311.28125 C 315.320312 307.242188 317.542969 301.871094 317.542969 296.160156 C 317.542969 290.449219 315.320312 285.078125 311.28125 281.042969 C 307.242188 277.003906 301.871094 274.777344 296.160156 274.777344 Z M 306.152344 306.152344 C 303.398438 308.90625 299.78125 310.285156 296.160156 310.285156 C 292.542969 310.285156 288.925781 308.90625 286.171875 306.152344 C 280.660156 300.644531 280.660156 291.679688 286.171875 286.167969 C 288.925781 283.414062 292.542969 282.039062 296.160156 282.039062 C 299.777344 282.039062 303.398438 283.414062 306.152344 286.167969 C 311.660156 291.679688 311.660156 300.644531 306.152344 306.152344 Z M 306.152344 306.152344 " fill-opacity="1" fill-rule="nonzero"/><path fill="#000000" d="M 39.300781 214.265625 L 46 211.488281 L 68.9375 266.867188 L 62.238281 269.640625 Z M 39.300781 214.265625 " fill-opacity="1" fill-rule="nonzero"/><path fill="#000000" d="M 105.304688 311.742188 L 108.082031 305.042969 L 161.910156 327.339844 L 159.136719 334.039062 Z M 105.304688 311.742188 " fill-opacity="1" fill-rule="nonzero"/><path fill="#000000" d="M 211.402344 327.339844 L 268.136719 303.839844 L 270.914062 310.539062 L 214.179688 334.039062 Z M 211.402344 327.339844 " fill-opacity="1" fill-rule="nonzero"/><path fill="#000000" d="M 303.792969 268.253906 L 327.195312 211.757812 L 333.894531 214.535156 L 310.492188 271.027344 Z M 303.792969 268.253906 " fill-opacity="1" fill-rule="nonzero"/><path fill="#000000" d="M 303.605469 104.582031 L 310.304688 101.804688 L 333.742188 158.386719 L 327.042969 161.164062 Z M 303.605469 104.582031 " fill-opacity="1" fill-rule="nonzero"/><path fill="#000000" d="M 212.28125 46.320312 L 215.054688 39.617188 L 270.757812 62.691406 L 267.984375 69.390625 Z M 212.28125 46.320312 " fill-opacity="1" fill-rule="nonzero"/><path fill="#000000" d="M 101.796875 63.003906 L 159.246094 39.210938 L 162.019531 45.910156 L 104.570312 69.707031 Z M 101.796875 63.003906 " fill-opacity="1" fill-rule="nonzero"/><path fill="#000000" d="M 39.800781 157.824219 L 63.308594 101.074219 L 70.007812 103.851562 L 46.5 160.597656 Z M 39.800781 157.824219 " fill-opacity="1" fill-rule="nonzero"/></svg>